{"glyphs":{"0":{"ha":383,"x_min":0,"x_max":0,"o":"m 192 -14 b 31 181 93 -14 31 50 l 31 790 b 192 985 31 921 93 985 b 353 790 290 985 353 921 l 353 181 b 192 -14 353 50 290 -14 m 192 58 b 275 161 238 58 275 83 l 275 810 b 192 913 275 888 238 913 b 108 810 146 913 108 888 l 108 161 b 192 58 108 85 146 58 "},"1":{"ha":206,"x_min":0,"x_max":0,"o":"m 97 0 l 97 815 l 14 815 l 14 888 b 103 985 75 888 103 907 l 175 985 l 175 0 "},"2":{"ha":382,"x_min":0,"x_max":0,"o":"m 28 174 b 157 468 28 371 101 429 l 179 485 b 274 658 243 531 274 561 l 274 810 b 194 913 274 876 246 913 b 115 810 143 913 115 876 l 115 649 l 38 649 l 38 790 b 194 985 38 914 94 985 b 351 790 294 985 351 914 l 351 658 b 244 438 351 524 294 475 l 224 421 b 106 174 144 361 106 329 l 106 72 l 351 72 l 351 0 l 28 0 "},"3":{"ha":383,"x_min":0,"x_max":0,"o":"m 108 365 l 108 161 b 192 58 108 94 138 58 b 275 161 246 58 275 94 l 275 374 b 192 476 275 440 246 476 l 121 476 l 121 554 l 192 554 b 275 657 246 554 275 590 l 275 810 b 192 913 275 876 246 913 b 108 810 138 913 108 876 l 108 660 l 31 660 l 31 790 b 192 985 31 915 89 985 b 353 790 294 985 353 915 l 353 671 b 244 517 353 590 321 528 l 244 514 b 353 360 321 506 353 440 l 353 181 b 192 -14 353 56 294 -14 b 31 181 89 -14 31 56 l 31 365 "},"4":{"ha":415,"x_min":0,"x_max":0,"o":"m 28 319 l 188 971 l 325 971 l 325 319 l 388 319 l 388 247 l 325 247 l 325 0 l 247 0 l 247 247 l 28 247 m 247 319 l 247 913 l 244 913 l 103 319 "},"5":{"ha":383,"x_min":0,"x_max":0,"o":"m 108 364 l 108 161 b 192 58 108 94 138 58 b 275 161 246 58 275 94 l 275 492 b 201 594 275 561 251 594 b 108 471 144 594 108 547 l 108 439 l 31 439 l 31 971 l 331 971 l 331 899 l 108 899 l 108 567 l 111 567 b 231 667 126 632 169 667 b 353 500 310 667 353 608 l 353 192 b 190 -14 353 60 294 -14 b 31 181 89 -14 31 57 l 31 364 "},"6":{"ha":383,"x_min":0,"x_max":0,"o":"m 111 497 b 231 597 126 561 169 597 b 353 431 310 597 353 539 l 353 192 b 190 -14 353 60 294 -14 b 31 181 89 -14 31 57 l 31 790 b 192 985 31 915 89 985 b 353 790 294 985 353 915 l 353 667 l 275 667 l 275 810 b 192 913 275 876 246 913 b 108 810 138 913 108 876 l 108 497 m 192 58 b 275 161 246 58 275 94 l 275 422 b 201 525 275 492 250 525 b 108 401 143 525 108 478 l 108 161 b 192 58 108 94 138 58 "},"7":{"ha":336,"x_min":0,"x_max":0,"o":"m 322 899 l 153 0 l 75 0 l 243 899 l 7 899 l 7 971 l 322 971 "},"8":{"ha":383,"x_min":0,"x_max":0,"o":"m 125 517 b 31 671 58 528 31 590 l 31 790 b 192 985 31 915 89 985 b 353 790 294 985 353 915 l 353 671 b 258 517 353 590 325 528 l 258 514 b 353 360 325 506 353 440 l 353 181 b 192 -14 353 57 294 -14 b 31 181 89 -14 31 56 l 31 360 b 125 514 31 440 58 506 m 192 554 b 275 657 246 554 275 590 l 275 810 b 192 913 275 876 246 913 b 108 810 138 913 108 876 l 108 657 b 192 554 108 590 138 554 m 192 58 b 275 161 246 58 275 94 l 275 374 b 192 476 275 440 246 476 b 108 374 138 476 108 440 l 108 161 b 192 58 108 94 138 58 "},"9":{"ha":383,"x_min":0,"x_max":0,"o":"m 108 332 l 108 161 b 192 58 108 94 138 58 b 275 161 246 58 275 94 l 275 501 l 272 501 b 153 401 257 438 214 401 b 31 568 74 401 31 460 l 31 779 b 193 985 31 911 89 985 b 353 790 294 985 353 914 l 353 181 b 192 -14 353 56 294 -14 b 31 181 89 -14 31 56 l 31 332 m 182 474 b 275 597 240 474 275 521 l 275 810 b 192 913 275 876 246 913 b 108 810 138 913 108 876 l 108 576 b 182 474 108 507 133 474 "},"\u0000":{"ha":694,"x_min":0,"x_max":0,"o":""},"\r":{"ha":694,"x_min":0,"x_max":0,"o":""}," ":{"ha":139,"x_min":0,"x_max":0,"o":""},"H":{"ha":394,"x_min":0,"x_max":0,"o":"m 364 971 l 364 0 l 281 0 l 281 474 l 114 474 l 114 0 l 31 0 l 31 971 l 114 971 l 114 551 l 281 551 l 281 971 "},"I":{"ha":144,"x_min":0,"x_max":0,"o":"m 114 971 l 114 0 l 31 0 l 31 971 "},"J":{"ha":390,"x_min":0,"x_max":0,"o":"m 110 350 l 110 167 b 193 64 110 90 147 64 b 276 167 239 64 276 89 l 276 971 l 360 971 l 360 168 b 196 -14 360 46 296 -14 b 31 168 94 -14 31 46 l 31 350 "},"K":{"ha":408,"x_min":0,"x_max":0,"o":"m 31 971 l 114 971 l 114 556 l 117 556 l 313 971 l 397 971 l 186 526 l 408 0 l 318 0 l 117 496 l 114 496 l 114 0 l 31 0 "},"L":{"ha":289,"x_min":0,"x_max":0,"o":"m 114 971 l 114 78 l 281 78 l 281 0 l 31 0 l 31 971 "},"M":{"ha":569,"x_min":0,"x_max":0,"o":"m 31 971 l 164 971 l 285 72 l 288 72 l 406 971 l 539 971 l 539 0 l 456 0 l 456 593 l 469 899 l 467 899 l 339 0 l 228 0 l 100 899 l 97 899 l 111 593 l 111 0 l 31 0 "},"N":{"ha":436,"x_min":0,"x_max":0,"o":"m 151 971 l 344 86 l 347 86 l 322 438 l 322 971 l 406 971 l 406 0 l 292 0 l 96 899 l 93 899 l 114 535 l 114 0 l 31 0 l 31 971 "},"O":{"ha":394,"x_min":0,"x_max":0,"o":"m 197 -14 b 31 181 96 -14 31 50 l 31 790 b 197 985 31 921 96 985 b 364 790 299 985 364 921 l 364 181 b 197 -14 364 50 299 -14 m 197 64 b 281 167 243 64 281 89 l 281 804 b 197 907 281 882 243 907 b 114 804 151 907 114 882 l 114 167 b 197 64 114 90 151 64 "},"P":{"ha":390,"x_min":0,"x_max":0,"o":"m 31 971 l 193 971 b 360 776 294 971 360 907 l 360 628 b 193 433 360 497 294 433 l 114 433 l 114 0 l 31 0 m 197 511 b 281 614 243 511 281 536 l 281 790 b 197 893 281 868 243 893 l 114 893 l 114 511 "},"Q":{"ha":394,"x_min":0,"x_max":0,"o":"m 197 -14 b 31 181 96 -14 31 50 l 31 790 b 197 985 31 921 96 985 b 364 790 299 985 364 921 l 364 181 b 294 13 364 99 339 43 b 363 -65 313 -12 333 -35 l 304 -112 b 240 -10 275 -71 257 -43 b 197 -14 226 -12 213 -14 m 197 64 b 281 167 243 64 281 89 l 281 804 b 197 907 281 882 243 907 b 114 804 151 907 114 882 l 114 167 b 197 64 114 90 151 64 "},"R":{"ha":390,"x_min":0,"x_max":0,"o":"m 31 971 l 193 971 b 360 779 300 971 360 903 l 360 661 b 251 490 360 563 328 501 l 251 488 b 344 340 315 479 333 443 l 381 0 l 297 0 l 263 343 b 182 446 254 425 238 446 l 114 446 l 114 0 l 31 0 m 197 521 b 281 631 251 521 281 564 l 281 790 b 197 893 281 857 251 893 l 114 893 l 114 521 "},"S":{"ha":375,"x_min":0,"x_max":0,"o":"m 104 336 l 104 167 b 188 64 104 89 142 64 b 271 167 233 64 271 90 l 271 269 b 176 453 271 379 254 394 l 154 469 b 29 685 99 511 29 563 l 29 790 b 188 985 29 921 92 985 b 346 790 283 985 346 921 l 346 649 l 267 649 l 267 804 b 188 907 267 882 231 907 b 108 804 144 907 108 882 l 108 715 b 208 529 108 606 131 585 l 232 513 b 354 300 283 476 354 422 l 354 181 b 188 -14 354 50 289 -14 b 21 181 86 -14 21 50 l 21 336 "},"T":{"ha":375,"x_min":0,"x_max":0,"o":"m 354 893 l 229 893 l 229 0 l 146 0 l 146 893 l 21 893 l 21 971 l 354 971 "},"U":{"ha":394,"x_min":0,"x_max":0,"o":"m 114 971 l 114 167 b 197 64 114 90 151 64 b 281 167 243 64 281 89 l 281 971 l 364 971 l 364 168 b 197 -14 364 46 299 -14 b 31 168 96 -14 31 46 l 31 971 "},"V":{"ha":411,"x_min":0,"x_max":0,"o":"m 11 971 l 96 971 l 208 58 l 211 58 l 318 971 l 400 971 l 272 0 l 146 0 "},"W":{"ha":647,"x_min":0,"x_max":0,"o":"m 11 971 l 96 971 l 171 58 l 174 58 l 267 971 l 385 971 l 476 58 l 479 58 l 554 971 l 636 971 l 543 0 l 415 0 l 375 378 l 325 899 l 322 899 l 272 378 l 232 0 l 104 0 "},"X":{"ha":408,"x_min":0,"x_max":0,"o":"m 138 525 l 19 971 l 103 971 l 203 554 l 206 554 l 306 971 l 389 971 l 271 525 l 397 0 l 313 0 l 206 496 l 203 496 l 96 0 l 11 0 "},"Y":{"ha":411,"x_min":0,"x_max":0,"o":"m 250 356 l 250 0 l 167 0 l 167 356 l 11 971 l 96 971 l 208 463 l 211 463 l 318 971 l 400 971 "},"Z":{"ha":383,"x_min":0,"x_max":0,"o":"m 14 78 l 269 893 l 28 893 l 28 971 l 354 971 l 354 893 l 99 78 l 369 78 l 369 0 l 14 0 "},"a":{"ha":361,"x_min":0,"x_max":0,"o":"m 256 111 l 253 111 b 140 -14 238 22 199 -14 b 28 151 64 -14 28 49 l 28 244 b 256 490 28 367 67 408 l 256 614 b 181 719 256 682 229 719 b 106 614 132 719 106 682 l 106 511 l 32 511 l 32 599 b 183 792 32 722 86 792 b 333 599 281 792 333 724 l 333 0 l 263 0 m 256 417 b 106 251 124 356 106 335 l 106 157 b 163 58 106 88 126 58 b 256 306 219 58 256 128 l 256 417 "},"b":{"ha":361,"x_min":0,"x_max":0,"o":"m 28 999 l 106 999 l 106 667 l 108 667 b 221 792 124 756 163 792 b 333 626 297 792 333 729 l 333 151 b 221 -14 333 49 297 -14 b 108 111 163 -14 124 22 l 106 111 l 99 0 l 28 0 m 199 58 b 256 157 235 58 256 88 l 256 621 b 199 719 256 690 235 719 b 106 472 142 719 106 650 l 106 306 b 199 58 106 128 142 58 "},"c":{"ha":357,"x_min":0,"x_max":0,"o":"m 181 58 b 256 164 222 58 256 86 l 256 329 l 329 329 l 329 181 b 179 -14 329 50 271 -14 b 28 181 88 -14 28 50 l 28 599 b 179 792 28 729 88 792 b 329 599 271 792 329 729 l 329 463 l 256 463 l 256 614 b 181 719 256 692 222 719 b 106 614 139 719 106 692 l 106 164 b 181 58 106 86 139 58 "},"d":{"ha":361,"x_min":0,"x_max":0,"o":"m 263 0 l 256 111 l 253 111 b 140 -14 238 22 199 -14 b 28 151 64 -14 28 49 l 28 626 b 140 792 28 729 64 792 b 253 667 199 792 238 756 l 256 667 l 256 999 l 333 999 l 333 0 m 163 58 b 256 306 219 58 256 128 l 256 472 b 163 719 256 650 219 719 b 106 621 126 719 106 690 l 106 157 b 163 58 106 88 126 58 "},"e":{"ha":357,"x_min":0,"x_max":0,"o":"m 181 58 b 256 164 222 58 256 86 l 256 301 l 329 301 l 329 181 b 179 -14 329 50 271 -14 b 28 181 88 -14 28 50 l 28 599 b 179 792 28 729 88 792 b 329 599 271 792 329 729 l 329 365 l 106 365 l 106 164 b 181 58 106 86 139 58 m 256 432 l 256 614 b 181 719 256 692 222 719 b 106 614 139 719 106 692 l 106 432 "},"f":{"ha":324,"x_min":0,"x_max":0,"o":"m 14 778 l 89 778 l 89 856 b 228 1014 89 956 140 1014 b 296 1004 249 1014 272 1011 l 296 933 b 242 940 275 939 258 940 b 167 854 189 940 167 915 l 167 778 l 296 778 l 296 706 l 167 706 l 167 0 l 89 0 l 89 706 l 14 706 "},"g":{"ha":361,"x_min":0,"x_max":0,"o":"m 108 0 l 108 -42 b 182 -147 108 -119 142 -147 b 256 -42 222 -147 256 -119 l 256 167 l 253 167 b 140 42 238 78 199 42 b 28 207 64 42 28 104 l 28 626 b 140 792 28 729 64 792 b 253 667 199 792 238 756 l 256 667 l 263 778 l 333 778 l 333 -26 b 185 -221 333 -157 275 -221 b 35 -26 94 -221 35 -157 l 35 0 m 163 114 b 256 361 219 114 256 183 l 256 472 b 163 719 256 650 219 719 b 106 621 126 719 106 690 l 106 213 b 163 114 106 143 126 114 "},"h":{"ha":361,"x_min":0,"x_max":0,"o":"m 28 999 l 106 999 l 106 651 l 108 651 b 232 792 126 744 168 792 b 333 639 300 792 333 740 l 333 0 l 256 0 l 256 628 b 200 719 256 692 239 719 b 106 501 138 719 106 646 l 106 0 l 28 0 "},"i":{"ha":133,"x_min":0,"x_max":0,"o":"m 28 985 l 106 985 l 106 860 l 28 860 m 28 778 l 106 778 l 106 0 l 28 0 "},"j":{"ha":133,"x_min":0,"x_max":0,"o":"m 28 985 l 106 985 l 106 860 l 28 860 m -74 -144 b -36 -147 -58 -147 -46 -147 b 28 -61 10 -147 28 -124 l 28 778 l 106 778 l 106 -62 b -26 -221 106 -161 57 -221 b -74 -214 -39 -221 -56 -219 "},"k":{"ha":376,"x_min":0,"x_max":0,"o":"m 28 999 l 106 999 l 106 463 l 108 463 l 274 778 l 356 778 l 167 422 l 367 0 l 279 0 l 108 381 l 106 381 l 106 0 l 28 0 "},"l":{"ha":133,"x_min":0,"x_max":0,"o":"m 28 999 l 106 999 l 106 0 l 28 0 "},"m":{"ha":589,"x_min":0,"x_max":0,"o":"m 28 778 l 97 778 l 106 651 l 108 651 b 232 792 126 744 168 792 b 333 651 297 792 333 740 l 336 651 b 460 792 354 744 396 792 b 561 639 528 792 561 740 l 561 0 l 483 0 l 483 628 b 428 719 483 692 467 719 b 333 501 365 719 333 646 l 333 0 l 256 0 l 256 628 b 200 719 256 692 239 719 b 106 501 138 719 106 646 l 106 0 l 28 0 "},"n":{"ha":361,"x_min":0,"x_max":0,"o":"m 28 778 l 97 778 l 106 651 l 108 651 b 232 792 126 744 168 792 b 333 639 300 792 333 740 l 333 0 l 256 0 l 256 628 b 200 719 256 692 239 719 b 106 501 138 719 106 646 l 106 0 l 28 0 "},"o":{"ha":361,"x_min":0,"x_max":0,"o":"m 181 -14 b 28 181 88 -14 28 50 l 28 599 b 181 792 28 729 88 792 b 333 599 274 792 333 729 l 333 181 b 181 -14 333 50 274 -14 m 181 58 b 256 164 222 58 256 86 l 256 614 b 181 719 256 692 222 719 b 106 614 139 719 106 692 l 106 164 b 181 58 106 86 139 58 "},"p":{"ha":361,"x_min":0,"x_max":0,"o":"m 28 778 l 99 778 l 106 667 l 108 667 b 221 792 124 756 163 792 b 333 626 297 792 333 729 l 333 151 b 221 -14 333 49 297 -14 b 108 111 163 -14 124 22 l 106 111 l 106 -207 l 28 -207 m 199 58 b 256 157 235 58 256 88 l 256 621 b 199 719 256 690 235 719 b 106 472 142 719 106 650 l 106 306 b 199 58 106 128 142 58 "},"q":{"ha":361,"x_min":0,"x_max":0,"o":"m 256 -207 l 256 111 l 253 111 b 140 -14 238 22 199 -14 b 28 151 64 -14 28 49 l 28 626 b 140 792 28 729 64 792 b 253 667 199 792 238 756 l 256 667 l 263 778 l 333 778 l 333 -207 m 163 58 b 256 306 219 58 256 128 l 256 472 b 163 719 256 650 219 719 b 106 621 126 719 106 690 l 106 157 b 163 58 106 88 126 58 "},"r":{"ha":258,"x_min":0,"x_max":0,"o":"m 28 778 l 99 778 l 106 610 l 108 610 b 218 792 125 715 150 792 b 247 788 226 792 236 790 l 247 683 b 221 685 238 685 229 685 b 106 449 129 685 106 582 l 106 0 l 28 0 "},"s":{"ha":343,"x_min":0,"x_max":0,"o":"m 99 260 l 99 158 b 174 60 99 81 133 60 b 244 158 214 60 244 81 l 244 210 b 157 358 244 293 233 303 l 135 375 b 28 549 88 408 28 456 l 28 606 b 171 792 28 736 81 792 b 314 606 263 792 314 736 l 314 532 l 240 532 l 240 621 b 171 719 240 699 208 719 b 101 621 133 719 101 699 l 101 579 b 192 426 101 489 125 472 l 215 411 b 322 236 263 379 322 339 l 322 174 b 171 -14 322 43 263 -14 b 21 174 79 -14 21 43 l 21 260 "},"t":{"ha":296,"x_min":0,"x_max":0,"o":"m 89 778 l 89 907 l 167 907 l 167 778 l 282 778 l 282 706 l 167 706 l 167 140 b 236 60 167 86 189 60 b 282 65 249 60 264 61 l 282 -4 b 221 -14 260 -11 239 -14 b 89 139 140 -14 89 46 l 89 706 l 14 706 l 14 778 "},"u":{"ha":361,"x_min":0,"x_max":0,"o":"m 333 0 l 264 0 l 256 126 l 253 126 b 129 -14 235 33 193 -14 b 28 139 61 -14 28 38 l 28 778 l 106 778 l 106 150 b 161 58 106 86 122 58 b 256 276 224 58 256 132 l 256 778 l 333 778 "},"v":{"ha":351,"x_min":0,"x_max":0,"o":"m 11 778 l 90 778 l 176 58 l 179 58 l 267 778 l 340 778 l 232 0 l 122 0 "},"w":{"ha":650,"x_min":0,"x_max":0,"o":"m 11 778 l 90 778 l 176 58 l 179 58 l 264 778 l 389 778 l 471 58 l 474 58 l 564 778 l 639 778 l 528 0 l 418 0 l 326 697 l 324 697 l 232 0 l 122 0 "},"x":{"ha":361,"x_min":0,"x_max":0,"o":"m 119 421 l 13 778 l 92 778 l 179 463 l 182 463 l 269 778 l 349 778 l 242 421 l 356 0 l 276 0 l 182 379 l 179 379 l 85 0 l 6 0 "},"y":{"ha":350,"x_min":0,"x_max":0,"o":"m 26 -128 b 135 -56 106 -128 135 -114 b 128 11 135 -40 133 -22 l 10 778 l 89 778 l 176 79 l 179 79 l 267 778 l 340 778 l 218 -46 b 43 -200 200 -167 157 -200 l 26 -200 "},"z":{"ha":333,"x_min":0,"x_max":0,"o":"m 10 72 l 224 706 l 24 706 l 24 778 l 304 778 l 304 706 l 90 72 l 319 72 l 319 0 l 10 0 "},"$":{"ha":375,"x_min":0,"x_max":0,"o":"m 104 336 l 104 167 b 188 64 104 89 142 64 b 271 167 233 64 271 90 l 271 269 b 176 453 271 379 254 394 l 154 469 b 29 685 99 511 29 563 l 29 790 b 157 982 29 907 79 969 l 146 1110 l 229 1110 l 218 982 b 346 790 296 969 346 907 l 346 649 l 267 649 l 267 804 b 188 907 267 882 231 907 b 108 804 144 907 108 882 l 108 715 b 208 529 108 606 131 585 l 232 513 b 354 300 283 476 354 422 l 354 181 b 218 -12 354 64 301 0 l 229 -137 l 146 -137 l 157 -12 b 21 181 74 0 21 64 l 21 336 "},"D":{"ha":394,"x_min":0,"x_max":0,"o":"m 31 971 l 197 971 b 364 776 299 971 364 907 l 364 194 b 197 0 364 64 299 0 l 31 0 m 197 78 b 281 181 243 78 281 103 l 281 790 b 197 893 281 868 243 893 l 114 893 l 114 78 "},"ﬁ":{"ha":443,"x_min":0,"x_max":0,"o":"m 14 778 l 89 778 l 89 856 b 228 1014 89 956 140 1014 b 296 1003 249 1014 272 1010 l 296 933 b 242 940 275 939 258 940 b 167 854 189 940 167 915 l 167 778 l 296 778 l 296 706 l 167 706 l 167 0 l 89 0 l 89 706 l 14 706 m 338 985 l 415 985 l 415 860 l 338 860 m 338 778 l 415 778 l 415 0 l 338 0 "},"…":{"ha":450,"x_min":0,"x_max":0,"o":"m 33 125 l 117 125 l 117 0 l 33 0 m 183 125 l 267 125 l 267 0 l 183 0 m 333 125 l 417 125 l 417 0 l 333 0 "},"!":{"ha":150,"x_min":0,"x_max":0,"o":"m 33 832 l 33 971 l 117 971 l 117 832 l 96 208 l 54 208 m 33 125 l 117 125 l 117 0 l 33 0 "},".":{"ha":150,"x_min":0,"x_max":0,"o":"m 33 125 l 117 125 l 117 0 l 33 0 "},",":{"ha":150,"x_min":0,"x_max":0,"o":"m 39 125 l 125 125 l 35 -189 l -7 -189 "},":":{"ha":150,"x_min":0,"x_max":0,"o":"m 33 778 l 117 778 l 117 653 l 33 653 m 33 125 l 117 125 l 117 0 l 33 0 "},";":{"ha":150,"x_min":0,"x_max":0,"o":"m 33 778 l 117 778 l 117 653 l 33 653 m 42 125 l 128 125 l 38 -189 l -4 -189 "},"“":{"ha":325,"x_min":0,"x_max":0,"o":"m 119 657 l 33 657 l 118 971 l 151 971 m 260 657 l 174 657 l 258 971 l 292 971 "},"’":{"ha":185,"x_min":0,"x_max":0,"o":"m 65 971 l 151 971 l 67 657 l 33 657 "},"‘":{"ha":185,"x_min":0,"x_max":0,"o":"m 119 658 l 33 658 l 118 972 l 151 972 "},"?":{"ha":381,"x_min":0,"x_max":0,"o":"m 135 257 b 206 468 135 371 175 429 l 218 485 b 269 658 253 531 269 561 l 269 810 b 190 913 269 876 242 913 b 111 810 139 913 111 876 l 111 649 l 33 649 l 33 790 b 190 985 33 914 90 985 b 347 790 290 985 347 914 l 347 658 b 281 438 347 538 322 496 l 269 421 b 213 257 225 361 213 329 l 213 208 l 135 208 m 132 125 l 215 125 l 215 0 l 132 0 "},"|":{"ha":150,"x_min":0,"x_max":0,"o":"m 33 -251 l 33 1047 l 117 1047 l 117 -251 "},"/":{"ha":240,"x_min":0,"x_max":0,"o":"m 14 -114 l 136 1011 l 219 1011 l 97 -114 "},"\\":{"ha":240,"x_min":0,"x_max":0,"o":"m 14 1011 l 97 1011 l 219 -114 l 136 -114 "},"⁄":{"ha":671,"x_min":0,"x_max":0,"o":"m 568 971 l 638 971 l 103 0 l 33 0 "},"<":{"ha":331,"x_min":0,"x_max":0,"o":"m 114 426 l 114 424 l 297 369 l 297 292 l 33 390 l 33 460 l 297 558 l 297 481 "},">":{"ha":331,"x_min":0,"x_max":0,"o":"m 217 424 l 217 426 l 33 481 l 33 558 l 297 460 l 297 390 l 33 292 l 33 369 "},"%":{"ha":772,"x_min":0,"x_max":0,"o":"m 179 450 b 33 621 90 450 33 510 l 33 814 b 179 985 33 925 90 985 b 325 814 268 985 325 925 l 325 621 b 179 450 325 510 268 450 m 553 971 l 635 971 l 218 0 l 136 0 m 179 517 b 253 619 225 517 253 547 l 253 815 b 179 918 253 888 225 918 b 106 815 133 918 106 888 l 106 619 b 179 517 106 549 133 517 m 592 -14 b 446 157 503 -14 446 46 l 446 350 b 592 521 446 461 503 521 b 738 350 681 521 738 461 l 738 157 b 592 -14 738 46 681 -14 m 592 53 b 665 156 638 53 665 83 l 665 351 b 592 454 665 424 638 454 b 518 351 546 454 518 424 l 518 156 b 592 53 518 85 546 53 "},"‰":{"ha":1119,"x_min":0,"x_max":0,"o":"m 179 450 b 33 621 90 450 33 510 l 33 814 b 179 985 33 925 90 985 b 325 814 268 985 325 925 l 325 621 b 179 450 325 510 268 450 m 553 971 l 635 971 l 218 0 l 136 0 m 179 517 b 253 619 225 517 253 547 l 253 815 b 179 918 253 888 225 918 b 106 815 133 918 106 888 l 106 619 b 179 517 106 549 133 517 m 592 -14 b 446 157 503 -14 446 46 l 446 350 b 592 521 446 461 503 521 b 738 350 681 521 738 461 l 738 157 b 592 -14 738 46 681 -14 m 939 -14 b 793 157 850 -14 793 46 l 793 350 b 939 521 793 461 850 521 b 1085 350 1028 521 1085 461 l 1085 157 b 939 -14 1085 46 1028 -14 m 592 53 b 665 156 638 53 665 83 l 665 351 b 592 454 665 424 638 454 b 518 351 546 454 518 424 l 518 156 b 592 53 518 85 546 53 m 939 53 b 1013 156 985 53 1013 83 l 1013 351 b 939 454 1013 424 985 454 b 865 351 893 454 865 424 l 865 156 b 939 53 865 85 893 53 "},"«":{"ha":433,"x_min":0,"x_max":0,"o":"m 171 647 l 254 647 l 113 389 l 254 131 l 171 131 l 33 389 m 335 647 l 418 647 l 276 389 l 418 131 l 335 131 l 197 389 "},"»":{"ha":433,"x_min":0,"x_max":0,"o":"m 263 131 l 179 131 l 321 389 l 178 647 l 263 647 l 399 389 m 99 131 l 15 131 l 157 389 l 14 647 l 99 647 l 235 389 "},"^":{"ha":303,"x_min":0,"x_max":0,"o":"m 153 876 l 150 876 l 117 721 l 33 721 l 108 971 l 194 971 l 269 721 l 186 721 "},"*":{"ha":407,"x_min":0,"x_max":0,"o":"m 165 806 l 35 835 l 56 900 l 181 850 l 168 985 l 238 985 l 228 850 l 353 903 l 374 838 l 243 806 l 331 704 l 275 664 l 204 778 l 135 663 l 79 703 "},"#":{"ha":533,"x_min":0,"x_max":0,"o":"m 118 326 l 33 326 l 33 399 l 122 399 l 133 574 l 47 574 l 47 646 l 138 646 l 156 971 l 232 971 l 214 646 l 339 646 l 357 971 l 433 971 l 415 646 l 500 646 l 500 574 l 411 574 l 400 399 l 486 399 l 486 326 l 396 326 l 378 0 l 301 0 l 319 326 l 194 326 l 176 0 l 100 0 m 324 399 l 335 574 l 210 574 l 199 399 "},"[":{"ha":207,"x_min":0,"x_max":0,"o":"m 33 -265 l 33 1061 l 200 1061 l 200 983 l 117 983 l 117 -187 l 200 -187 l 200 -265 "},"]":{"ha":207,"x_min":0,"x_max":0,"o":"m 174 1061 l 174 -265 l 7 -265 l 7 -187 l 90 -187 l 90 983 l 7 983 l 7 1061 "},"(":{"ha":214,"x_min":0,"x_max":0,"o":"m 168 -283 b 35 400 79 -4 35 197 b 169 1079 35 600 79 801 l 228 1068 b 119 400 165 833 119 617 b 228 -272 119 182 167 -36 l 168 -283 "},")":{"ha":214,"x_min":0,"x_max":0,"o":"m 44 1079 b 179 397 135 800 179 599 b 44 -283 179 196 135 -6 l -15 -272 b 94 396 47 -37 94 179 b -14 1068 94 614 47 832 l 44 1079 "},"{":{"ha":311,"x_min":0,"x_max":0,"o":"m 214 578 b 139 400 214 449 186 404 l 139 397 b 214 219 186 393 214 349 l 214 -94 b 264 -187 214 -168 231 -187 l 304 -187 l 304 -265 l 253 -265 b 131 -94 181 -265 131 -226 l 131 264 b 33 360 131 326 117 360 l 33 438 b 131 533 117 438 131 471 l 131 889 b 253 1061 131 1021 194 1061 l 304 1061 l 304 983 l 264 983 b 214 890 231 983 214 978 "},"}":{"ha":311,"x_min":0,"x_max":0,"o":"m 97 218 b 172 396 97 347 125 392 l 172 399 b 97 576 125 403 97 447 l 97 890 b 47 983 97 964 81 983 l 7 983 l 7 1061 l 60 1061 b 181 890 131 1061 181 1022 l 181 532 b 278 436 181 469 194 436 l 278 358 b 181 263 194 358 181 325 l 181 -93 b 60 -265 181 -225 117 -265 l 7 -265 l 7 -187 l 47 -187 b 97 -94 81 -187 97 -182 "},"@":{"ha":808,"x_min":0,"x_max":0,"o":"m 476 157 b 363 32 461 68 421 32 b 247 197 285 32 247 94 l 247 550 b 360 715 247 653 283 715 b 472 590 418 715 457 679 l 475 590 l 482 701 l 553 701 l 553 185 b 625 100 553 128 589 100 b 697 185 661 100 697 128 l 697 624 b 404 910 697 814 551 910 b 111 624 258 910 111 814 l 111 108 b 325 -126 111 -51 194 -126 l 640 -126 l 640 -201 l 324 -201 b 33 108 163 -201 33 -107 l 33 635 b 404 985 33 868 219 985 b 775 635 590 985 775 868 l 775 176 b 625 25 775 75 692 25 b 479 157 560 25 485 72 m 382 104 b 475 351 439 104 475 174 l 475 396 b 382 643 475 574 439 643 b 325 544 346 643 325 614 l 325 203 b 382 104 325 133 346 104 "},"&":{"ha":531,"x_min":0,"x_max":0,"o":"m 383 72 b 226 -14 343 15 290 -14 b 19 236 107 -14 19 93 b 157 544 19 339 64 440 b 69 813 97 668 69 740 b 221 985 69 914 131 985 b 367 804 311 985 367 915 b 247 533 367 715 331 633 l 376 267 b 382 464 381 324 382 389 l 382 508 l 460 508 l 460 464 b 431 154 460 338 453 233 l 504 3 l 504 0 l 418 0 m 214 603 b 289 797 264 663 289 728 b 221 910 289 867 264 910 b 153 807 179 910 153 869 b 214 603 153 749 178 685 m 190 474 b 103 240 131 394 103 321 b 226 61 103 132 151 61 b 344 151 275 61 315 93 "},"˜":{"ha":304,"x_min":0,"x_max":0,"o":"m 33 794 b 90 897 33 861 50 897 b 154 876 111 897 133 888 b 207 860 174 868 190 860 b 229 885 222 860 229 868 l 229 897 l 271 897 l 271 889 b 217 786 271 822 253 786 b 151 807 197 786 174 797 b 97 824 131 815 113 824 b 75 799 83 824 75 815 l 75 786 l 33 786 "},"+":{"ha":400,"x_min":0,"x_max":0,"o":"m 367 390 l 242 390 l 242 251 l 158 251 l 158 390 l 33 390 l 33 468 l 158 468 l 158 607 l 242 607 l 242 468 l 367 468 "},"-":{"ha":289,"x_min":0,"x_max":0,"o":"m 256 390 l 33 390 l 33 468 l 256 468 "},"–":{"ha":553,"x_min":0,"x_max":0,"o":"m 519 390 l 33 390 l 33 468 l 519 468 "},"—":{"ha":886,"x_min":0,"x_max":0,"o":"m 853 390 l 33 390 l 33 468 l 853 468 "},"_":{"ha":344,"x_min":0,"x_max":0,"o":"m 311 -78 l 33 -78 l 33 0 l 311 0 "},"=":{"ha":400,"x_min":0,"x_max":0,"o":"m 33 540 l 367 540 l 367 463 l 33 463 m 33 388 l 367 388 l 367 310 l 33 310 "},"•":{"ha":231,"x_min":0,"x_max":0,"o":"m 35 464 b 115 544 35 508 71 544 b 197 464 161 544 197 508 b 115 382 197 419 161 382 b 35 464 71 382 35 419 "},"¡":{"ha":150,"x_min":0,"x_max":0,"o":"m 117 778 l 117 653 l 33 653 l 33 778 m 96 569 l 117 -54 l 117 -193 l 33 -193 l 33 -54 l 54 569 "},"†":{"ha":311,"x_min":0,"x_max":0,"o":"m 194 971 l 194 778 l 278 778 l 278 706 l 194 706 l 194 0 l 117 0 l 117 706 l 33 706 l 33 778 l 117 778 l 117 971 "},"‡":{"ha":311,"x_min":0,"x_max":0,"o":"m 194 971 l 194 778 l 278 778 l 278 706 l 194 706 l 194 265 l 278 265 l 278 193 l 194 193 l 194 0 l 117 0 l 117 193 l 33 193 l 33 265 l 117 265 l 117 706 l 33 706 l 33 778 l 117 778 l 117 971 "},"›":{"ha":269,"x_min":0,"x_max":0,"o":"m 99 131 l 15 131 l 157 389 l 14 646 l 99 646 l 235 389 "},"‹":{"ha":269,"x_min":0,"x_max":0,"o":"m 171 647 l 254 647 l 113 389 l 254 131 l 171 131 l 33 389 "},"ˆ":{"ha":260,"x_min":0,"x_max":0,"o":"m 35 772 l 85 996 l 176 996 l 226 772 l 163 772 l 132 949 l 129 949 l 99 772 "},"°":{"ha":233,"x_min":0,"x_max":0,"o":"m 118 793 b 35 876 69 793 35 828 b 118 960 35 925 69 960 b 200 876 165 960 200 925 b 118 793 200 828 165 793 m 117 919 b 79 878 94 919 79 903 b 118 833 79 853 96 833 b 156 878 139 833 156 851 b 117 919 156 903 140 919 "},"'":{"ha":143,"x_min":0,"x_max":0,"o":"m 110 861 l 103 707 l 40 707 l 33 861 l 33 985 l 110 985 "},"\"":{"ha":269,"x_min":0,"x_max":0,"o":"m 236 861 l 229 707 l 167 707 l 160 861 l 160 985 l 236 985 m 110 861 l 103 707 l 40 707 l 33 861 l 33 985 l 110 985 "},"‚":{"ha":176,"x_min":0,"x_max":0,"o":"m 65 125 l 151 125 l 67 -190 l 33 -190 "},"„":{"ha":317,"x_min":0,"x_max":0,"o":"m 206 125 l 292 125 l 207 -189 l 174 -189 m 65 125 l 151 125 l 67 -189 l 33 -189 "},"~":{"ha":386,"x_min":0,"x_max":0,"o":"m 33 454 b 110 574 33 535 57 574 b 201 547 142 574 172 560 b 269 525 226 536 249 525 b 299 557 289 525 299 536 l 299 574 l 351 574 l 351 564 b 283 443 351 483 329 443 b 197 468 257 443 226 456 b 119 492 169 481 142 492 b 88 460 99 492 88 481 l 88 443 l 33 443 "},"´":{"ha":194,"x_min":0,"x_max":0,"o":"m 33 772 l 78 996 l 160 996 l 89 772 "},"`":{"ha":194,"x_min":0,"x_max":0,"o":"m 33 996 l 117 996 l 160 772 l 104 772 "},"¨":{"ha":250,"x_min":0,"x_max":0,"o":"m 33 896 l 108 896 l 108 799 l 33 799 m 140 896 l 215 896 l 215 799 l 140 799 "},"˚":{"ha":264,"x_min":0,"x_max":0,"o":"m 33 872 b 132 969 33 938 81 969 b 231 872 183 969 231 938 b 132 776 231 808 183 776 b 33 872 81 776 33 808 m 93 872 b 132 829 93 840 111 829 b 171 872 153 829 171 840 b 132 917 171 904 153 917 b 93 872 111 917 93 904 "},"ˇ":{"ha":260,"x_min":0,"x_max":0,"o":"m 131 819 l 133 819 l 163 996 l 226 996 l 176 772 l 85 772 l 35 996 l 99 996 "},"˘":{"ha":281,"x_min":0,"x_max":0,"o":"m 97 919 b 140 847 97 874 113 847 b 183 919 168 847 183 874 l 246 919 b 140 785 246 832 206 785 b 35 919 75 785 35 832 "},"˝":{"ha":300,"x_min":0,"x_max":0,"o":"m 79 996 l 163 996 l 89 772 l 33 772 m 182 996 l 265 996 l 192 772 l 136 772 "},"˙":{"ha":142,"x_min":0,"x_max":0,"o":"m 33 799 l 33 894 l 108 894 l 108 799 "},"˛":{"ha":239,"x_min":0,"x_max":0,"o":"m 206 -174 b 153 -178 188 -176 169 -178 b 33 -100 82 -178 33 -147 b 197 1 33 -43 100 -3 l 203 -10 b 97 -68 143 -17 97 -39 b 165 -103 97 -90 122 -103 b 206 -99 179 -103 193 -101 "},"¸":{"ha":239,"x_min":0,"x_max":0,"o":"m 33 -119 b 86 -125 56 -124 74 -125 b 133 -100 115 -125 133 -115 b 54 -67 133 -79 103 -67 l 65 11 l 107 11 l 100 -35 b 206 -104 164 -36 206 -62 b 92 -178 206 -147 158 -178 b 33 -171 74 -178 51 -175 "},"B":{"ha":385,"x_min":0,"x_max":0,"o":"m 31 971 l 193 971 b 360 779 300 971 360 901 l 360 676 b 251 517 360 592 328 528 l 251 514 b 364 354 329 504 364 438 l 364 197 b 197 0 364 71 304 0 l 31 0 m 197 549 b 281 658 251 549 281 592 l 281 790 b 197 893 281 857 251 893 l 114 893 l 114 549 m 197 78 b 281 181 251 78 281 114 l 281 364 b 197 474 281 431 251 474 l 114 474 l 114 78 "},"C":{"ha":390,"x_min":0,"x_max":0,"o":"m 360 419 l 360 181 b 196 -14 360 50 296 -14 b 31 181 94 -14 31 50 l 31 790 b 196 985 31 921 94 985 b 360 790 296 985 360 921 l 360 565 l 281 565 l 281 804 b 197 907 281 882 243 907 b 114 804 151 907 114 882 l 114 167 b 197 64 114 90 151 64 b 281 167 243 64 281 89 l 281 419 "},"A":{"ha":425,"x_min":0,"x_max":0,"o":"m 146 971 l 272 971 l 414 0 l 329 0 l 293 275 l 128 275 l 93 0 l 11 0 m 283 353 l 210 913 l 207 913 l 138 353 "},"±":{"ha":400,"x_min":0,"x_max":0,"o":"m 367 390 l 242 390 l 242 251 l 158 251 l 158 390 l 33 390 l 33 468 l 158 468 l 158 607 l 242 607 l 242 468 l 367 468 m 367 103 l 33 103 l 33 181 l 367 181 "},"ı":{"ha":175,"x_min":0,"x_max":0,"o":"m 49 778 l 126 778 l 126 0 l 49 0 "},"·":{"ha":150,"x_min":0,"x_max":0,"o":"m 33 547 l 117 547 l 117 422 l 33 422 "},"¯":{"ha":233,"x_min":0,"x_max":0,"o":"m 200 801 l 33 801 l 33 864 l 200 864 "},"E":{"ha":308,"x_min":0,"x_max":0,"o":"m 114 893 l 114 550 l 276 550 l 276 475 l 114 475 l 114 78 l 294 78 l 294 0 l 31 0 l 31 971 l 288 971 l 288 893 "},"F":{"ha":301,"x_min":0,"x_max":0,"o":"m 114 893 l 114 536 l 276 536 l 276 461 l 114 461 l 114 0 l 31 0 l 31 971 l 288 971 l 288 893 "},"G":{"ha":390,"x_min":0,"x_max":0,"o":"m 303 147 b 175 -14 293 39 247 -14 b 31 181 88 -14 31 63 l 31 790 b 196 985 31 914 90 985 b 360 790 301 985 360 915 l 360 593 l 281 593 l 281 804 b 197 907 281 871 251 907 b 114 804 143 907 114 871 l 114 167 b 192 64 114 100 143 64 b 276 181 249 64 276 114 l 276 447 l 183 447 l 183 522 l 360 522 l 360 0 l 317 0 l 306 147 "},"¿":{"ha":381,"x_min":0,"x_max":0,"o":"m 249 653 l 165 653 l 165 778 l 249 778 m 246 521 b 175 310 246 407 206 350 l 163 293 b 111 119 128 247 111 217 l 111 -32 b 190 -135 111 -99 139 -135 b 269 -32 242 -135 269 -99 l 269 129 l 347 129 l 347 -12 b 190 -207 347 -136 290 -207 b 33 -12 90 -207 33 -136 l 33 119 b 100 340 33 240 58 282 l 111 357 b 168 521 156 417 168 449 l 168 569 l 246 569 "},"¶":{"ha":536,"x_min":0,"x_max":0,"o":"m 503 0 l 425 0 l 425 971 l 503 971 m 342 0 l 264 0 l 264 457 l 239 457 b 33 714 83 457 33 560 b 239 971 33 868 83 971 l 342 971 "},"¬":{"ha":531,"x_min":0,"x_max":0,"o":"m 497 971 l 497 0 l 33 0 l 33 971 m 269 553 l 372 901 l 158 901 l 267 553 m 226 485 l 117 817 l 117 153 m 414 814 l 310 485 l 414 157 m 372 69 l 269 418 l 267 418 l 158 69 "},"Þ":{"ha":390,"x_min":0,"x_max":0,"o":"m 31 971 l 114 971 l 114 754 l 193 754 b 360 560 294 754 360 690 l 360 411 b 193 217 360 281 294 217 l 114 217 l 114 0 l 31 0 m 197 294 b 281 397 243 294 281 319 l 281 574 b 197 676 281 651 243 676 l 114 676 l 114 294 "},"þ":{"ha":361,"x_min":0,"x_max":0,"o":"m 28 1000 l 106 1000 l 106 667 l 108 667 b 221 792 124 756 163 792 b 333 626 297 792 333 729 l 333 151 b 221 -14 333 49 297 -14 b 108 111 163 -14 124 22 l 106 111 l 106 -207 l 28 -207 m 199 58 b 256 157 235 58 256 88 l 256 621 b 199 719 256 690 235 719 b 106 472 142 719 106 650 l 106 306 b 199 58 106 128 142 58 "},"©":{"ha":651,"x_min":0,"x_max":0,"o":"m 325 -14 b 33 317 150 -14 33 118 l 33 654 b 325 983 33 853 150 983 b 618 654 501 983 618 851 l 618 317 b 325 -14 618 118 501 -14 m 325 58 b 540 310 458 58 540 154 l 540 654 b 322 911 540 810 454 911 b 111 660 193 911 111 813 l 111 310 b 325 58 111 154 193 58 m 328 254 b 389 346 361 254 389 268 l 389 435 l 463 435 l 463 363 b 326 182 463 232 410 182 b 189 363 243 182 189 232 l 189 607 b 326 786 189 738 243 786 b 463 607 410 786 463 738 l 463 543 l 389 543 l 389 622 b 328 714 389 700 361 714 b 267 622 294 714 267 700 l 267 346 b 328 254 267 268 294 254 "},"®":{"ha":651,"x_min":0,"x_max":0,"o":"m 325 -14 b 33 317 150 -14 33 118 l 33 654 b 325 983 33 853 150 983 b 618 654 501 983 618 853 l 618 317 b 325 -14 618 118 501 -14 m 325 58 b 540 310 458 58 540 154 l 540 654 b 322 911 540 810 454 911 b 111 660 194 911 111 813 l 111 310 b 325 58 111 154 193 58 m 199 786 l 332 786 b 453 650 403 786 453 729 l 453 582 b 385 479 453 519 431 486 l 385 478 b 446 386 425 472 438 454 l 469 182 l 390 182 l 368 385 b 318 447 363 435 353 447 l 276 447 l 276 182 l 199 182 m 328 517 b 379 581 361 517 379 539 l 379 650 b 328 714 379 692 361 714 l 276 714 l 276 517 "},"ƒ":{"ha":378,"x_min":0,"x_max":0,"o":"m 14 -142 b 68 -147 35 -146 53 -147 b 143 -62 121 -147 143 -122 l 143 706 l 68 706 l 68 778 l 143 778 l 143 856 b 282 1014 143 956 194 1014 b 350 1004 303 1014 326 1011 l 350 933 b 296 940 329 939 313 940 b 221 854 243 940 221 915 l 221 778 l 350 778 l 350 706 l 221 706 l 221 -64 b 82 -221 221 -162 171 -221 b 14 -211 61 -221 38 -218 "},"Œ":{"ha":558,"x_min":0,"x_max":0,"o":"m 544 78 l 544 0 l 197 0 b 31 194 96 0 31 64 l 31 776 b 197 971 31 907 96 971 l 538 971 l 538 893 l 364 893 l 364 550 l 526 550 l 526 475 l 364 475 l 364 78 m 281 893 l 197 893 b 114 790 151 893 114 868 l 114 181 b 197 78 114 104 151 78 l 281 78 "},"œ":{"ha":585,"x_min":0,"x_max":0,"o":"m 181 -14 b 28 181 88 -14 28 50 l 28 599 b 181 792 28 729 88 792 b 293 742 229 792 268 775 l 296 742 b 407 792 321 775 360 792 b 557 599 499 792 557 729 l 557 365 l 333 365 l 333 164 b 408 58 333 86 367 58 b 483 164 450 58 483 86 l 483 301 l 557 301 l 557 181 b 407 -14 557 50 499 -14 b 296 38 360 -14 321 3 l 293 38 b 181 -14 268 3 229 -14 m 483 432 l 483 614 b 408 719 483 692 450 719 b 333 614 367 719 333 692 l 333 432 m 181 58 b 256 164 222 58 256 86 l 256 614 b 181 719 256 692 222 719 b 106 614 139 719 106 692 l 106 164 b 181 58 106 86 139 58 "},"€":{"ha":453,"x_min":0,"x_max":0,"o":"m 31 604 l 93 604 l 93 790 b 258 985 93 921 157 985 b 422 790 358 985 422 921 l 422 676 l 343 676 l 343 804 b 260 907 343 882 306 907 b 176 804 214 907 176 882 l 176 604 l 364 604 l 350 532 l 176 532 l 176 453 l 350 453 l 336 381 l 176 381 l 176 167 b 260 64 176 90 214 64 b 343 167 306 64 343 89 l 343 308 l 422 308 l 422 181 b 258 -14 422 50 358 -14 b 93 181 157 -14 93 50 l 93 381 l 31 381 l 31 453 l 93 453 l 93 532 l 31 532 "},"™":{"ha":546,"x_min":0,"x_max":0,"o":"m 225 971 l 315 971 l 354 681 l 368 549 l 371 549 l 385 681 l 422 971 l 513 971 l 513 486 l 457 486 l 457 782 l 465 907 l 463 907 l 407 486 l 329 486 l 274 907 l 271 907 l 279 782 l 279 486 l 225 486 m 89 918 l 33 918 l 33 971 l 200 971 l 200 918 l 144 918 l 144 486 l 89 486 "},"¢":{"ha":357,"x_min":0,"x_max":0,"o":"m 181 58 b 256 164 222 58 256 86 l 256 329 l 329 329 l 329 181 b 208 -11 329 65 283 1 l 221 -139 l 138 -139 l 149 -11 b 28 181 75 1 28 65 l 28 599 b 149 789 28 714 75 776 l 138 917 l 221 917 l 208 789 b 329 599 283 776 329 715 l 329 463 l 256 463 l 256 614 b 181 719 256 692 222 719 b 106 614 139 719 106 692 l 106 164 b 181 58 106 86 139 58 "},"Æ":{"ha":590,"x_min":0,"x_max":0,"o":"m 251 971 l 569 971 l 569 893 l 396 893 l 396 550 l 558 550 l 558 475 l 396 475 l 396 78 l 576 78 l 576 0 l 313 0 l 313 275 l 163 275 l 96 0 l 11 0 m 313 353 l 313 883 l 310 883 l 182 353 "},"æ":{"ha":585,"x_min":0,"x_max":0,"o":"m 260 111 b 144 -14 244 22 204 -14 b 28 151 65 -14 28 49 l 28 244 b 256 490 28 367 67 408 l 256 614 b 181 719 256 682 229 719 b 106 614 132 719 106 682 l 106 511 l 32 511 l 32 599 b 183 792 32 722 86 792 b 294 742 232 792 269 775 l 297 742 b 407 792 322 775 360 792 b 557 599 499 792 557 729 l 557 365 l 333 365 l 333 164 b 408 58 333 86 367 58 b 483 164 450 58 483 86 l 483 301 l 557 301 l 557 181 b 407 -14 557 50 499 -14 b 263 111 333 -14 281 28 m 483 432 l 483 614 b 408 719 483 692 450 719 b 333 614 367 719 333 692 l 333 432 m 256 417 b 106 251 124 356 106 335 l 106 157 b 163 58 106 88 126 58 b 256 306 219 58 256 128 l 256 417 "},"÷":{"ha":400,"x_min":0,"x_max":0,"o":"m 169 604 l 232 604 l 232 510 l 169 510 m 368 390 l 35 390 l 35 468 l 368 468 m 169 349 l 232 349 l 232 254 l 169 254 "},"¤":{"ha":531,"x_min":0,"x_max":0,"o":"m 497 971 l 497 0 l 33 0 l 33 971 m 269 553 l 372 901 l 158 901 l 267 553 m 226 485 l 117 817 l 117 153 m 414 814 l 310 485 l 414 157 m 372 69 l 269 418 l 267 418 l 158 69 "},"£":{"ha":443,"x_min":0,"x_max":0,"o":"m 31 64 b 118 343 90 115 118 206 b 117 401 118 361 118 382 l 40 401 l 40 474 l 111 474 b 101 575 108 511 104 546 l 96 617 b 83 778 88 685 83 740 b 247 985 83 911 143 985 b 413 790 351 985 413 913 l 413 636 l 333 636 l 333 804 b 250 907 333 872 306 907 b 167 775 192 907 167 868 b 178 635 167 729 174 672 l 182 593 b 193 474 188 547 192 507 l 382 474 l 382 401 l 196 401 b 72 72 194 250 144 144 l 413 72 l 413 0 l 31 0 "},"¥":{"ha":411,"x_min":0,"x_max":0,"o":"m 368 358 l 251 358 l 250 356 l 250 306 l 368 306 l 368 233 l 250 233 l 250 0 l 167 0 l 167 233 l 49 233 l 49 306 l 167 306 l 167 358 l 49 358 l 49 431 l 147 431 l 11 971 l 96 971 l 208 463 l 211 463 l 318 971 l 400 971 l 268 431 l 368 431 "},"Ł":{"ha":289,"x_min":0,"x_max":0,"o":"m 114 971 l 114 564 l 175 589 l 204 517 l 114 481 l 114 78 l 281 78 l 281 0 l 31 0 l 31 447 l -1 435 l -31 506 l 31 531 l 31 971 "},"ł":{"ha":211,"x_min":0,"x_max":0,"o":"m 67 443 l 29 428 l 0 500 l 67 526 l 67 999 l 144 999 l 144 558 l 181 572 l 210 500 l 144 474 l 144 0 l 67 0 "},"Đ":{"ha":394,"x_min":0,"x_max":0,"o":"m 31 475 l -10 475 l -10 550 l 31 550 l 31 971 l 197 971 b 364 776 299 971 364 907 l 364 194 b 197 0 364 64 299 0 l 31 0 m 197 78 b 281 181 243 78 281 103 l 281 790 b 197 893 281 868 243 893 l 114 893 l 114 550 l 213 550 l 213 475 l 114 475 l 114 78 "},"×":{"ha":397,"x_min":0,"x_max":0,"o":"m 308 264 l 200 372 l 93 264 l 33 324 l 142 431 l 33 539 l 89 594 l 197 486 l 304 594 l 364 535 l 256 428 l 364 319 "},"¦":{"ha":150,"x_min":0,"x_max":0,"o":"m 33 476 l 33 1042 l 117 1042 l 117 476 m 33 -257 l 33 310 l 117 310 l 117 -257 "},"§":{"ha":343,"x_min":0,"x_max":0,"o":"m 99 126 l 99 17 b 174 -82 99 -61 133 -82 b 244 17 214 -82 244 -61 l 244 68 b 157 217 244 151 233 161 l 135 233 b 28 407 88 267 28 314 l 28 464 b 76 617 28 538 44 588 b 28 742 49 647 28 686 l 28 799 b 171 985 28 929 81 985 b 314 799 263 985 314 929 l 314 726 l 240 726 l 240 814 b 171 913 240 892 208 913 b 101 814 133 913 101 892 l 101 772 b 192 619 101 682 125 665 l 215 604 b 322 429 263 572 322 532 l 322 367 b 276 219 322 299 306 250 b 322 94 303 192 322 153 l 322 32 b 171 -156 322 -99 263 -156 b 21 32 79 -156 21 -99 l 21 126 m 218 267 b 244 351 235 281 244 307 l 244 403 b 157 551 244 486 233 496 l 135 568 b 101 479 114 556 101 529 l 101 438 b 192 285 101 347 125 331 l 215 269 b 218 267 217 268 217 268 "},"²":{"ha":272,"x_min":0,"x_max":0,"o":"m 33 533 b 106 697 33 638 74 671 l 121 711 b 175 825 151 735 175 756 l 175 872 b 140 926 175 911 163 926 b 104 872 117 926 104 911 l 104 789 l 40 789 l 40 875 b 140 985 40 946 76 985 b 239 875 203 985 239 946 l 239 825 b 168 665 239 722 200 690 l 151 651 b 97 533 122 628 97 608 l 97 478 l 239 478 l 239 419 l 33 419 "},"³":{"ha":272,"x_min":0,"x_max":0,"o":"m 97 619 l 97 519 b 136 464 97 482 110 464 b 175 519 163 464 175 482 l 175 635 b 138 683 175 671 165 683 l 106 683 l 106 742 l 138 742 b 175 790 165 742 175 756 l 175 871 b 136 926 175 908 163 926 b 97 871 110 926 97 908 l 97 803 l 33 803 l 33 872 b 136 985 33 944 69 985 b 239 872 201 985 239 944 l 239 799 b 174 714 239 749 217 721 l 174 711 b 239 626 217 706 239 676 l 239 518 b 136 406 239 446 201 406 b 33 518 69 406 33 446 l 33 619 "},"¹":{"ha":181,"x_min":0,"x_max":0,"o":"m 82 419 l 82 876 l 35 876 l 35 929 b 92 985 78 929 92 939 l 147 985 l 147 419 "},"ª":{"ha":300,"x_min":0,"x_max":0,"o":"m 204 531 l 201 531 b 117 446 189 476 157 446 b 33 565 67 446 33 493 l 33 618 b 203 785 33 700 63 729 l 203 856 b 151 926 203 901 185 926 b 97 856 117 926 97 900 l 97 801 l 36 801 l 36 856 b 153 985 36 939 78 985 b 267 856 226 985 267 939 l 267 456 l 211 456 m 203 728 b 97 618 111 689 97 675 l 97 578 b 142 507 97 529 113 507 b 203 628 182 507 203 550 l 203 728 "},"º":{"ha":300,"x_min":0,"x_max":0,"o":"m 151 446 b 33 581 78 446 33 493 l 33 851 b 151 985 33 939 78 985 b 267 851 224 985 267 939 l 267 581 b 151 446 267 493 224 446 m 151 504 b 203 579 179 504 203 528 l 203 851 b 151 926 203 903 179 926 b 97 851 122 926 97 903 l 97 579 b 151 504 97 528 122 504 "},"¼":{"ha":651,"x_min":0,"x_max":0,"o":"m 122 419 l 122 876 l 75 876 l 75 929 b 132 985 118 929 132 939 l 188 985 l 188 419 m 568 971 l 638 971 l 103 0 l 33 0 m 399 185 l 475 551 l 575 551 l 575 185 l 611 185 l 611 126 l 575 126 l 575 0 l 511 0 l 511 126 l 399 126 m 511 185 l 518 496 l 517 496 l 460 185 "},"½":{"ha":675,"x_min":0,"x_max":0,"o":"m 122 419 l 122 876 l 75 876 l 75 929 b 132 985 118 929 132 939 l 188 985 l 188 419 m 568 971 l 638 971 l 103 0 l 33 0 m 438 114 b 510 278 438 218 478 251 l 525 292 b 578 406 554 315 578 336 l 578 453 b 543 507 578 492 565 507 b 508 453 521 507 508 492 l 508 369 l 444 369 l 444 456 b 543 565 444 526 481 565 b 642 456 606 565 642 526 l 642 406 b 571 246 642 303 603 271 l 556 232 b 501 114 526 208 501 189 l 501 58 l 642 58 l 642 0 l 438 0 "},"¾":{"ha":679,"x_min":0,"x_max":0,"o":"m 97 619 l 97 519 b 136 464 97 482 110 464 b 175 519 163 464 175 482 l 175 635 b 138 683 175 671 165 683 l 106 683 l 106 742 l 138 742 b 175 790 165 742 175 756 l 175 871 b 136 926 175 908 163 926 b 97 871 110 926 97 908 l 97 803 l 33 803 l 33 872 b 136 985 33 944 69 985 b 239 872 201 985 239 944 l 239 799 b 174 714 239 749 218 721 l 174 711 b 239 626 217 706 239 676 l 239 518 b 136 406 239 446 201 406 b 33 518 69 406 33 446 l 33 619 m 576 971 l 646 971 l 111 0 l 42 0 m 404 185 l 481 551 l 579 551 l 579 185 l 615 185 l 615 126 l 579 126 l 579 0 l 515 0 l 515 126 l 404 126 m 515 185 l 522 496 l 521 496 l 465 185 "},"ß":{"ha":404,"x_min":0,"x_max":0,"o":"m 31 804 b 185 1013 31 949 93 1013 b 332 824 279 1013 332 943 b 244 540 332 671 244 618 b 383 204 244 442 383 368 b 190 0 383 82 306 0 l 161 0 l 161 78 l 190 78 b 300 201 261 78 300 125 b 161 543 300 347 161 407 b 254 822 161 654 254 685 b 182 935 254 896 228 935 b 114 808 143 935 114 903 l 114 0 l 31 0 "},"Ø":{"ha":394,"x_min":0,"x_max":0,"o":"m 197 -14 b 100 14 160 -14 126 -4 l 88 -42 l 44 -42 l 65 49 b 31 181 43 81 31 125 l 31 790 b 197 985 31 921 96 985 b 294 957 235 985 268 975 l 307 1013 l 350 1013 l 329 922 b 364 790 351 890 364 847 l 364 181 b 197 -14 364 50 299 -14 m 263 876 b 197 907 247 899 224 907 b 114 804 151 907 114 882 l 114 208 m 197 64 b 281 167 243 64 281 89 l 281 763 l 132 94 b 197 64 147 72 171 64 "},"ø":{"ha":361,"x_min":0,"x_max":0,"o":"m 181 -14 b 94 11 147 -14 118 -6 l 81 -42 l 31 -42 l 54 56 b 28 181 38 86 28 128 l 28 599 b 181 792 28 729 88 792 b 268 767 214 792 243 783 l 281 819 l 331 819 l 307 722 b 333 599 324 692 333 650 l 333 181 b 181 -14 333 50 274 -14 m 238 692 b 181 719 224 711 203 719 b 106 614 139 719 106 692 l 106 204 m 181 58 b 256 164 222 58 256 86 l 256 574 l 124 86 b 181 58 138 67 158 58 "},"đ":{"ha":361,"x_min":0,"x_max":0,"o":"m 263 0 l 256 111 l 253 111 b 140 -14 238 22 199 -14 b 28 151 64 -14 28 49 l 28 626 b 140 792 28 729 64 792 b 253 667 199 792 238 756 l 256 667 l 256 832 l 167 832 l 167 904 l 256 904 l 256 999 l 333 999 l 333 904 l 375 904 l 375 832 l 333 832 l 333 0 m 163 58 b 256 306 219 58 256 128 l 256 472 b 163 719 256 650 219 719 b 106 621 126 719 106 690 l 106 157 b 163 58 106 88 126 58 "},"Ã":{"ha":425,"x_min":0,"x_max":0,"o":"m 90 1036 b 147 1139 90 1103 107 1139 b 211 1118 168 1139 190 1129 b 264 1101 231 1110 247 1101 b 286 1126 279 1101 286 1110 l 286 1139 l 328 1139 l 328 1131 b 274 1028 328 1064 310 1028 b 208 1049 254 1028 231 1039 b 154 1065 188 1057 169 1065 b 132 1040 140 1065 132 1057 l 132 1028 l 90 1028 m 146 971 l 272 971 l 414 0 l 329 0 l 293 275 l 128 275 l 93 0 l 11 0 m 283 353 l 210 913 l 207 913 l 138 353 "},"Â":{"ha":425,"x_min":0,"x_max":0,"o":"m 115 1014 l 165 1238 l 257 1238 l 307 1014 l 243 1014 l 213 1190 l 210 1190 l 179 1014 m 146 971 l 272 971 l 414 0 l 329 0 l 293 275 l 128 275 l 93 0 l 11 0 m 283 353 l 210 913 l 207 913 l 138 353 "},"Á":{"ha":425,"x_min":0,"x_max":0,"o":"m 175 1014 l 219 1238 l 301 1238 l 231 1014 m 146 971 l 272 971 l 414 0 l 329 0 l 293 275 l 128 275 l 93 0 l 11 0 m 283 353 l 210 913 l 207 913 l 138 353 "},"À":{"ha":425,"x_min":0,"x_max":0,"o":"m 118 1238 l 201 1238 l 244 1014 l 189 1014 m 146 971 l 272 971 l 414 0 l 329 0 l 293 275 l 128 275 l 93 0 l 11 0 m 283 353 l 210 913 l 207 913 l 138 353 "},"Ä":{"ha":425,"x_min":0,"x_max":0,"o":"m 118 1138 l 193 1138 l 193 1040 l 118 1040 m 225 1138 l 300 1138 l 300 1040 l 225 1040 m 146 971 l 272 971 l 414 0 l 329 0 l 293 275 l 128 275 l 93 0 l 11 0 m 282 353 l 210 913 l 207 913 l 138 353 "},"Å":{"ha":425,"x_min":0,"x_max":0,"o":"m 111 1115 b 210 1211 111 1179 158 1211 b 308 1115 260 1211 308 1179 b 210 1018 308 1050 260 1018 b 111 1115 158 1018 111 1050 m 171 1114 b 210 1071 171 1083 189 1071 b 247 1114 229 1071 247 1083 b 210 1158 247 1146 229 1158 b 171 1114 189 1158 171 1146 m 146 971 l 272 971 l 414 0 l 329 0 l 294 275 l 126 275 l 93 0 l 11 0 m 283 353 l 210 913 l 207 913 l 136 353 "},"Ç":{"ha":390,"x_min":0,"x_max":0,"o":"m 360 419 l 360 181 b 215 -12 360 58 304 -6 l 211 -35 b 317 -104 275 -36 317 -62 b 203 -178 317 -147 269 -178 b 144 -171 185 -178 163 -175 l 144 -119 b 197 -125 167 -124 185 -125 b 244 -100 226 -125 244 -115 b 165 -67 244 -79 214 -67 l 174 -12 b 31 181 86 -4 31 60 l 31 790 b 196 985 31 921 94 985 b 360 790 296 985 360 921 l 360 565 l 281 565 l 281 804 b 197 907 281 882 243 907 b 114 804 151 907 114 882 l 114 167 b 197 64 114 90 151 64 b 281 167 243 64 281 89 l 281 419 "},"Ê":{"ha":308,"x_min":0,"x_max":0,"o":"m 63 1014 l 113 1238 l 204 1238 l 254 1014 l 190 1014 l 160 1190 l 157 1190 l 126 1014 m 114 893 l 114 550 l 276 550 l 276 475 l 114 475 l 114 78 l 294 78 l 294 0 l 31 0 l 31 971 l 288 971 l 288 893 "},"É":{"ha":308,"x_min":0,"x_max":0,"o":"m 122 1014 l 167 1238 l 249 1238 l 178 1014 m 114 893 l 114 550 l 276 550 l 276 475 l 114 475 l 114 78 l 294 78 l 294 0 l 31 0 l 31 971 l 288 971 l 288 893 "},"È":{"ha":308,"x_min":0,"x_max":0,"o":"m 65 1238 l 149 1238 l 192 1014 l 136 1014 m 114 893 l 114 550 l 276 550 l 276 475 l 114 475 l 114 78 l 294 78 l 294 0 l 31 0 l 31 971 l 288 971 l 288 893 "},"Ë":{"ha":308,"x_min":0,"x_max":0,"o":"m 65 1138 l 140 1138 l 140 1040 l 65 1040 m 172 1138 l 247 1138 l 247 1040 l 172 1040 m 114 893 l 114 550 l 276 550 l 276 475 l 114 475 l 114 78 l 294 78 l 294 0 l 31 0 l 31 971 l 288 971 l 288 893 "},"Î":{"ha":144,"x_min":0,"x_max":0,"o":"m -24 1014 l 28 1238 l 119 1238 l 169 1014 l 106 1014 l 75 1190 l 72 1190 l 42 1014 m 114 971 l 114 0 l 31 0 l 31 971 "},"Í":{"ha":144,"x_min":0,"x_max":0,"o":"m 38 1014 l 82 1238 l 164 1238 l 93 1014 m 114 971 l 114 0 l 31 0 l 31 971 "},"Ì":{"ha":144,"x_min":0,"x_max":0,"o":"m -19 1238 l 64 1238 l 107 1014 l 51 1014 m 114 971 l 114 0 l 31 0 l 31 971 "},"Ï":{"ha":144,"x_min":0,"x_max":0,"o":"m -19 1138 l 56 1138 l 56 1040 l -19 1040 m 88 1138 l 163 1138 l 163 1040 l 88 1040 m 114 971 l 114 0 l 31 0 l 31 971 "},"Ñ":{"ha":436,"x_min":0,"x_max":0,"o":"m 97 1036 b 154 1139 97 1103 114 1139 b 218 1118 175 1139 197 1129 b 271 1101 238 1110 254 1101 b 293 1126 286 1101 293 1110 l 293 1139 l 335 1139 l 335 1131 b 281 1028 335 1064 317 1028 b 215 1049 261 1028 238 1039 b 161 1065 194 1057 176 1065 b 139 1040 147 1065 139 1057 l 139 1028 l 97 1028 m 151 971 l 344 86 l 347 86 l 322 438 l 322 971 l 406 971 l 406 0 l 292 0 l 96 899 l 93 899 l 114 535 l 114 0 l 31 0 l 31 971 "},"Õ":{"ha":394,"x_min":0,"x_max":0,"o":"m 78 1036 b 135 1139 78 1103 94 1139 b 199 1118 156 1139 178 1129 b 251 1101 218 1110 235 1101 b 274 1126 267 1101 274 1110 l 274 1139 l 315 1139 l 315 1131 b 261 1028 315 1064 297 1028 b 196 1049 242 1028 218 1039 b 142 1065 175 1057 157 1065 b 119 1040 128 1065 119 1057 l 119 1028 l 78 1028 m 197 -14 b 31 181 96 -14 31 50 l 31 790 b 197 985 31 921 96 985 b 364 790 299 985 364 921 l 364 181 b 197 -14 364 50 299 -14 m 197 64 b 281 167 243 64 281 89 l 281 804 b 197 907 281 882 243 907 b 114 804 151 907 114 882 l 114 167 b 197 64 114 90 151 64 "},"Ô":{"ha":394,"x_min":0,"x_max":0,"o":"m 103 1014 l 153 1238 l 244 1238 l 294 1014 l 231 1014 l 200 1190 l 197 1190 l 167 1014 m 197 -14 b 31 181 96 -14 31 50 l 31 790 b 197 985 31 921 96 985 b 364 790 299 985 364 921 l 364 181 b 197 -14 364 50 299 -14 m 197 64 b 281 167 243 64 281 89 l 281 804 b 197 907 281 882 243 907 b 114 804 151 907 114 882 l 114 167 b 197 64 114 90 151 64 "},"Ó":{"ha":394,"x_min":0,"x_max":0,"o":"m 163 1014 l 207 1238 l 289 1238 l 218 1014 m 197 -14 b 31 181 96 -14 31 50 l 31 790 b 197 985 31 921 96 985 b 364 790 299 985 364 921 l 364 181 b 197 -14 364 50 299 -14 m 197 64 b 281 167 243 64 281 89 l 281 804 b 197 907 281 882 243 907 b 114 804 151 907 114 882 l 114 167 b 197 64 114 90 151 64 "},"Ò":{"ha":394,"x_min":0,"x_max":0,"o":"m 106 1238 l 189 1238 l 232 1014 l 176 1014 m 197 -14 b 31 181 96 -14 31 50 l 31 790 b 197 985 31 921 96 985 b 364 790 299 985 364 921 l 364 181 b 197 -14 364 50 299 -14 m 197 64 b 281 167 243 64 281 89 l 281 804 b 197 907 281 882 243 907 b 114 804 151 907 114 882 l 114 167 b 197 64 114 90 151 64 "},"Ö":{"ha":394,"x_min":0,"x_max":0,"o":"m 106 1138 l 181 1138 l 181 1040 l 106 1040 m 213 1138 l 288 1138 l 288 1040 l 213 1040 m 197 -14 b 31 181 96 -14 31 50 l 31 790 b 197 985 31 921 96 985 b 364 790 299 985 364 921 l 364 181 b 197 -14 364 50 299 -14 m 197 64 b 281 167 243 64 281 89 l 281 804 b 197 907 281 882 243 907 b 114 804 151 907 114 882 l 114 167 b 197 64 114 90 151 64 "},"Û":{"ha":394,"x_min":0,"x_max":0,"o":"m 103 1014 l 153 1238 l 244 1238 l 294 1014 l 231 1014 l 200 1190 l 197 1190 l 167 1014 m 114 971 l 114 167 b 197 64 114 90 151 64 b 281 167 243 64 281 89 l 281 971 l 364 971 l 364 168 b 197 -14 364 46 299 -14 b 31 168 96 -14 31 46 l 31 971 "},"Ú":{"ha":394,"x_min":0,"x_max":0,"o":"m 163 1014 l 207 1238 l 289 1238 l 218 1014 m 114 971 l 114 167 b 197 64 114 90 151 64 b 281 167 243 64 281 89 l 281 971 l 364 971 l 364 168 b 197 -14 364 46 299 -14 b 31 168 96 -14 31 46 l 31 971 "},"Ù":{"ha":394,"x_min":0,"x_max":0,"o":"m 106 1238 l 189 1238 l 232 1014 l 176 1014 m 114 971 l 114 167 b 197 64 114 90 151 64 b 281 167 243 64 281 89 l 281 971 l 364 971 l 364 168 b 197 -14 364 46 299 -14 b 31 168 96 -14 31 46 l 31 971 "},"Ü":{"ha":394,"x_min":0,"x_max":0,"o":"m 106 1138 l 181 1138 l 181 1040 l 106 1040 m 213 1138 l 288 1138 l 288 1040 l 213 1040 m 114 971 l 114 167 b 197 64 114 90 151 64 b 281 167 243 64 281 89 l 281 971 l 364 971 l 364 168 b 197 -14 364 46 299 -14 b 31 168 96 -14 31 46 l 31 971 "},"Ý":{"ha":411,"x_min":0,"x_max":0,"o":"m 174 1014 l 218 1238 l 300 1238 l 229 1014 m 250 356 l 250 0 l 167 0 l 167 356 l 11 971 l 96 971 l 208 463 l 211 463 l 318 971 l 400 971 "},"ã":{"ha":361,"x_min":0,"x_max":0,"o":"m 64 843 b 121 946 64 910 81 946 b 185 925 142 946 164 936 b 238 908 204 917 221 908 b 260 933 253 908 260 917 l 260 946 l 301 946 l 301 938 b 247 835 301 871 283 835 b 182 856 228 835 204 846 b 128 872 161 864 143 872 b 106 847 114 872 106 864 l 106 835 l 64 835 m 256 111 l 253 111 b 140 -14 238 22 199 -14 b 28 151 64 -14 28 49 l 28 244 b 256 490 28 367 67 408 l 256 614 b 181 719 256 682 229 719 b 106 614 132 719 106 682 l 106 511 l 32 511 l 32 599 b 183 792 32 722 86 792 b 333 599 281 792 333 724 l 333 0 l 263 0 m 256 417 b 106 251 124 356 106 335 l 106 157 b 163 58 106 88 126 58 b 256 306 219 58 256 128 l 256 417 "},"â":{"ha":361,"x_min":0,"x_max":0,"o":"m 89 821 l 139 1044 l 231 1044 l 281 821 l 217 821 l 186 997 l 183 997 l 153 821 m 256 111 l 253 111 b 140 -14 238 22 199 -14 b 28 151 64 -14 28 49 l 28 244 b 256 490 28 367 67 408 l 256 614 b 181 719 256 682 229 719 b 106 614 132 719 106 682 l 106 511 l 32 511 l 32 599 b 183 792 32 722 86 792 b 333 599 281 792 333 724 l 333 0 l 263 0 m 256 417 b 106 251 124 356 106 335 l 106 157 b 163 58 106 88 126 58 b 256 306 219 58 256 128 l 256 417 "},"á":{"ha":361,"x_min":0,"x_max":0,"o":"m 149 821 l 193 1044 l 275 1044 l 204 821 m 256 111 l 253 111 b 140 -14 238 22 199 -14 b 28 151 64 -14 28 49 l 28 244 b 256 490 28 367 67 408 l 256 614 b 181 719 256 682 229 719 b 106 614 132 719 106 682 l 106 511 l 32 511 l 32 599 b 183 792 32 722 86 792 b 333 599 281 792 333 724 l 333 0 l 263 0 m 256 417 b 106 251 124 356 106 335 l 106 157 b 163 58 106 88 126 58 b 256 306 219 58 256 128 l 256 417 "},"à":{"ha":361,"x_min":0,"x_max":0,"o":"m 92 1044 l 175 1044 l 218 821 l 163 821 m 256 111 l 253 111 b 140 -14 238 22 199 -14 b 28 151 64 -14 28 49 l 28 244 b 256 490 28 367 67 408 l 256 614 b 181 719 256 682 229 719 b 106 614 132 719 106 682 l 106 511 l 32 511 l 32 599 b 183 792 32 722 86 792 b 333 599 281 792 333 724 l 333 0 l 263 0 m 256 417 b 106 251 124 356 106 335 l 106 157 b 163 58 106 88 126 58 b 256 306 219 58 256 128 l 256 417 "},"ä":{"ha":361,"x_min":0,"x_max":0,"o":"m 92 944 l 167 944 l 167 847 l 92 847 m 199 944 l 274 944 l 274 847 l 199 847 m 256 111 l 253 111 b 140 -14 238 22 199 -14 b 28 151 64 -14 28 49 l 28 244 b 256 490 28 367 67 408 l 256 614 b 181 719 256 682 229 719 b 106 614 132 719 106 682 l 106 511 l 32 511 l 32 599 b 183 792 32 722 86 792 b 333 599 281 792 333 724 l 333 0 l 263 0 m 256 417 b 106 251 124 356 106 335 l 106 157 b 163 58 106 88 126 58 b 256 306 219 58 256 128 l 256 417 "},"å":{"ha":361,"x_min":0,"x_max":0,"o":"m 85 921 b 183 1018 85 986 132 1018 b 282 921 233 1018 282 986 b 183 825 282 857 233 825 b 85 921 132 825 85 857 m 144 921 b 183 878 144 890 164 878 b 222 921 203 878 222 890 b 183 965 222 953 203 965 b 144 921 164 965 144 953 m 256 111 l 253 111 b 140 -14 238 22 199 -14 b 28 151 64 -14 28 49 l 28 244 b 256 490 28 367 67 408 l 256 614 b 181 719 256 682 229 719 b 106 614 132 719 106 682 l 106 511 l 32 511 l 32 599 b 183 792 32 722 86 792 b 333 599 281 792 333 724 l 333 0 l 263 0 m 256 417 b 106 251 124 356 106 335 l 106 157 b 163 58 106 88 126 58 b 256 306 219 58 256 128 l 256 417 "},"ç":{"ha":357,"x_min":0,"x_max":0,"o":"m 181 58 b 256 164 222 58 256 86 l 256 329 l 329 329 l 329 181 b 199 -12 329 60 279 -4 l 194 -35 b 300 -104 258 -36 300 -62 b 186 -178 300 -147 253 -178 b 128 -171 168 -178 146 -175 l 128 -119 b 181 -125 150 -124 168 -125 b 228 -100 210 -125 228 -115 b 149 -67 228 -79 197 -67 l 157 -12 b 28 181 78 -3 28 61 l 28 599 b 179 792 28 729 88 792 b 329 599 271 792 329 729 l 329 463 l 256 463 l 256 614 b 181 719 256 692 222 719 b 106 614 139 719 106 692 l 106 164 b 181 58 106 86 139 58 "},"ê":{"ha":357,"x_min":0,"x_max":0,"o":"m 85 821 l 135 1044 l 226 1044 l 276 821 l 213 821 l 182 997 l 179 997 l 149 821 m 181 58 b 256 164 222 58 256 86 l 256 301 l 329 301 l 329 181 b 179 -14 329 50 271 -14 b 28 181 88 -14 28 50 l 28 599 b 179 792 28 729 88 792 b 329 599 271 792 329 729 l 329 365 l 106 365 l 106 164 b 181 58 106 86 139 58 m 256 432 l 256 614 b 181 719 256 692 222 719 b 106 614 139 719 106 692 l 106 432 "},"é":{"ha":357,"x_min":0,"x_max":0,"o":"m 144 821 l 189 1044 l 271 1044 l 200 821 m 181 58 b 256 164 222 58 256 86 l 256 301 l 329 301 l 329 181 b 179 -14 329 50 271 -14 b 28 181 88 -14 28 50 l 28 599 b 179 792 28 729 88 792 b 329 599 271 792 329 729 l 329 365 l 106 365 l 106 164 b 181 58 106 86 139 58 m 256 432 l 256 614 b 181 719 256 692 222 719 b 106 614 139 719 106 692 l 106 432 "},"è":{"ha":357,"x_min":0,"x_max":0,"o":"m 88 1044 l 171 1044 l 214 821 l 158 821 m 181 58 b 256 164 222 58 256 86 l 256 301 l 329 301 l 329 181 b 179 -14 329 50 271 -14 b 28 181 88 -14 28 50 l 28 599 b 179 792 28 729 88 792 b 329 599 271 792 329 729 l 329 365 l 106 365 l 106 164 b 181 58 106 86 139 58 m 256 432 l 256 614 b 181 719 256 692 222 719 b 106 614 139 719 106 692 l 106 432 "},"ë":{"ha":357,"x_min":0,"x_max":0,"o":"m 88 944 l 163 944 l 163 847 l 88 847 m 194 944 l 269 944 l 269 847 l 194 847 m 181 58 b 256 164 222 58 256 86 l 256 301 l 329 301 l 329 181 b 179 -14 329 50 271 -14 b 28 181 88 -14 28 50 l 28 599 b 179 792 28 729 88 792 b 329 599 271 792 329 729 l 329 365 l 106 365 l 106 164 b 181 58 106 86 139 58 m 256 432 l 256 614 b 181 719 256 692 222 719 b 106 614 139 719 106 692 l 106 432 "},"ñ":{"ha":361,"x_min":0,"x_max":0,"o":"m 61 843 b 118 946 61 910 78 946 b 182 925 139 946 161 936 b 235 908 201 917 218 908 b 257 933 250 908 257 917 l 257 946 l 299 946 l 299 938 b 244 835 299 871 281 835 b 179 856 225 835 201 846 b 125 872 158 864 140 872 b 103 847 111 872 103 864 l 103 835 l 61 835 m 28 778 l 97 778 l 106 651 l 108 651 b 232 792 126 744 168 792 b 333 639 300 792 333 740 l 333 0 l 256 0 l 256 628 b 200 719 256 692 239 719 b 106 501 138 719 106 646 l 106 0 l 28 0 "},"õ":{"ha":361,"x_min":0,"x_max":0,"o":"m 61 843 b 118 946 61 910 78 946 b 182 925 139 946 161 936 b 235 908 201 917 218 908 b 257 933 250 908 257 917 l 257 946 l 299 946 l 299 938 b 244 835 299 871 281 835 b 179 856 225 835 201 846 b 125 872 158 864 140 872 b 103 847 111 872 103 864 l 103 835 l 61 835 m 181 -14 b 28 181 88 -14 28 50 l 28 599 b 181 792 28 729 88 792 b 333 599 274 792 333 729 l 333 181 b 181 -14 333 50 274 -14 m 181 58 b 256 164 222 58 256 86 l 256 614 b 181 719 256 692 222 719 b 106 614 139 719 106 692 l 106 164 b 181 58 106 86 139 58 "},"ô":{"ha":361,"x_min":0,"x_max":0,"o":"m 86 821 l 136 1044 l 228 1044 l 278 821 l 214 821 l 183 997 l 181 997 l 150 821 m 181 -14 b 28 181 88 -14 28 50 l 28 599 b 181 792 28 729 88 792 b 333 599 274 792 333 729 l 333 181 b 181 -14 333 50 274 -14 m 181 58 b 256 164 222 58 256 86 l 256 614 b 181 719 256 692 222 719 b 106 614 139 719 106 692 l 106 164 b 181 58 106 86 139 58 "},"ó":{"ha":361,"x_min":0,"x_max":0,"o":"m 146 821 l 190 1044 l 272 1044 l 201 821 m 181 -14 b 28 181 88 -14 28 50 l 28 599 b 181 792 28 729 88 792 b 333 599 274 792 333 729 l 333 181 b 181 -14 333 50 274 -14 m 181 58 b 256 164 222 58 256 86 l 256 614 b 181 719 256 692 222 719 b 106 614 139 719 106 692 l 106 164 b 181 58 106 86 139 58 "},"ò":{"ha":361,"x_min":0,"x_max":0,"o":"m 89 1044 l 172 1044 l 215 821 l 160 821 m 181 -14 b 28 181 88 -14 28 50 l 28 599 b 181 792 28 729 88 792 b 333 599 274 792 333 729 l 333 181 b 181 -14 333 50 274 -14 m 181 58 b 256 164 222 58 256 86 l 256 614 b 181 719 256 692 222 719 b 106 614 139 719 106 692 l 106 164 b 181 58 106 86 139 58 "},"ö":{"ha":361,"x_min":0,"x_max":0,"o":"m 89 944 l 164 944 l 164 847 l 89 847 m 196 944 l 271 944 l 271 847 l 196 847 m 181 -14 b 28 181 88 -14 28 50 l 28 599 b 181 792 28 729 88 792 b 333 599 274 792 333 729 l 333 181 b 181 -14 333 50 274 -14 m 181 58 b 256 164 222 58 256 86 l 256 614 b 181 719 256 692 222 719 b 106 614 139 719 106 692 l 106 164 b 181 58 106 86 139 58 "},"û":{"ha":361,"x_min":0,"x_max":0,"o":"m 86 821 l 136 1044 l 228 1044 l 278 821 l 214 821 l 183 997 l 181 997 l 150 821 m 333 0 l 264 0 l 256 126 l 253 126 b 129 -14 235 33 193 -14 b 28 139 61 -14 28 38 l 28 778 l 106 778 l 106 150 b 161 58 106 86 122 58 b 256 276 224 58 256 132 l 256 778 l 333 778 "},"ú":{"ha":361,"x_min":0,"x_max":0,"o":"m 146 821 l 190 1044 l 272 1044 l 201 821 m 333 0 l 264 0 l 256 126 l 253 126 b 129 -14 235 33 193 -14 b 28 139 61 -14 28 38 l 28 778 l 106 778 l 106 150 b 161 58 106 86 122 58 b 256 276 224 58 256 132 l 256 778 l 333 778 "},"ù":{"ha":361,"x_min":0,"x_max":0,"o":"m 89 1044 l 172 1044 l 215 821 l 160 821 m 333 0 l 264 0 l 256 126 l 253 126 b 129 -14 235 33 193 -14 b 28 139 61 -14 28 38 l 28 778 l 106 778 l 106 150 b 161 58 106 86 122 58 b 256 276 224 58 256 132 l 256 778 l 333 778 "},"ü":{"ha":361,"x_min":0,"x_max":0,"o":"m 89 944 l 164 944 l 164 847 l 89 847 m 196 944 l 271 944 l 271 847 l 196 847 m 333 0 l 264 0 l 256 126 l 253 126 b 129 -14 235 33 193 -14 b 28 139 61 -14 28 38 l 28 778 l 106 778 l 106 150 b 161 58 106 86 122 58 b 256 276 224 58 256 132 l 256 778 l 333 778 "},"î":{"ha":175,"x_min":0,"x_max":0,"o":"m -10 821 l 42 1044 l 133 1044 l 183 821 l 119 821 l 89 997 l 86 997 l 56 821 m 49 778 l 126 778 l 126 0 l 49 0 "},"ì":{"ha":175,"x_min":0,"x_max":0,"o":"m -6 1044 l 78 1044 l 121 821 l 65 821 m 49 778 l 126 778 l 126 0 l 49 0 "},"ï":{"ha":175,"x_min":0,"x_max":0,"o":"m -6 944 l 69 944 l 69 847 l -6 847 m 103 944 l 178 944 l 178 847 l 103 847 m 49 778 l 126 778 l 126 0 l 49 0 "},"ý":{"ha":350,"x_min":0,"x_max":0,"o":"m 143 821 l 188 1044 l 269 1044 l 199 821 m 26 -128 b 135 -56 106 -128 135 -114 b 128 11 135 -40 133 -22 l 10 778 l 89 778 l 176 79 l 179 79 l 267 778 l 340 778 l 218 -46 b 43 -200 200 -167 157 -200 l 26 -200 "},"ÿ":{"ha":350,"x_min":0,"x_max":0,"o":"m 86 944 l 161 944 l 161 847 l 86 847 m 193 944 l 268 944 l 268 847 l 193 847 m 26 -128 b 135 -56 106 -128 135 -114 b 128 11 135 -40 132 -22 l 10 778 l 89 778 l 176 79 l 179 79 l 267 778 l 340 778 l 218 -46 b 43 -200 200 -167 156 -200 l 26 -200 "},"Ă":{"ha":425,"x_min":0,"x_max":0,"o":"m 167 1161 b 210 1089 167 1115 182 1089 b 253 1161 238 1089 253 1115 l 315 1161 b 210 1026 315 1072 275 1026 b 104 1161 144 1026 104 1072 m 146 971 l 272 971 l 414 0 l 329 0 l 293 275 l 128 275 l 93 0 l 11 0 m 283 353 l 210 913 l 207 913 l 138 353 "},"Ā":{"ha":425,"x_min":0,"x_max":0,"o":"m 293 1043 l 126 1043 l 126 1106 l 293 1106 m 146 971 l 272 971 l 414 0 l 329 0 l 293 275 l 128 275 l 93 0 l 11 0 m 283 353 l 210 913 l 207 913 l 138 353 "},"Ą":{"ha":425,"x_min":0,"x_max":0,"o":"m 146 971 l 272 971 l 414 0 b 308 -58 354 -7 308 -29 b 376 -93 308 -81 333 -93 b 417 -89 390 -93 404 -92 l 417 -164 b 364 -168 399 -167 381 -168 b 244 -90 293 -168 244 -137 b 336 0 244 -49 279 -17 l 329 0 l 293 275 l 128 275 l 93 0 l 11 0 m 283 353 l 210 913 l 207 913 l 138 353 "},"ă":{"ha":361,"x_min":0,"x_max":0,"o":"m 140 968 b 183 896 140 922 156 896 b 226 968 211 896 226 922 l 289 968 b 183 833 289 879 249 833 b 78 968 118 833 78 879 m 256 111 l 253 111 b 140 -14 238 22 199 -14 b 28 151 64 -14 28 49 l 28 244 b 256 490 28 367 67 408 l 256 614 b 181 719 256 682 229 719 b 106 614 132 719 106 682 l 106 511 l 32 511 l 32 599 b 183 792 32 722 86 792 b 333 599 281 792 333 724 l 333 0 l 263 0 m 256 417 b 106 251 124 356 106 335 l 106 157 b 163 58 106 88 126 58 b 256 306 219 58 256 128 l 256 417 "},"ā":{"ha":361,"x_min":0,"x_max":0,"o":"m 267 850 l 100 850 l 100 913 l 267 913 m 256 111 l 253 111 b 140 -14 238 22 199 -14 b 28 151 64 -14 28 49 l 28 244 b 256 490 28 367 67 408 l 256 614 b 181 719 256 682 229 719 b 106 614 132 719 106 682 l 106 511 l 32 511 l 32 599 b 183 792 32 722 86 792 b 333 599 281 792 333 724 l 333 0 l 263 0 m 256 417 b 106 251 124 356 106 335 l 106 157 b 163 58 106 88 126 58 b 256 306 219 58 256 128 l 256 417 "},"ą":{"ha":361,"x_min":0,"x_max":0,"o":"m 336 -164 b 283 -168 318 -167 300 -168 b 164 -90 213 -168 164 -137 b 263 1 164 -47 201 -14 l 256 111 l 253 111 b 140 -14 238 22 199 -14 b 28 151 64 -14 28 49 l 28 244 b 256 490 28 367 67 408 l 256 614 b 181 719 256 682 229 719 b 106 614 132 719 106 682 l 106 511 l 32 511 l 32 599 b 183 792 32 722 86 792 b 333 599 281 792 333 724 l 333 0 b 228 -58 274 -7 228 -29 b 296 -93 228 -81 253 -93 b 336 -89 310 -93 324 -92 m 256 417 b 106 251 124 356 106 335 l 106 157 b 163 58 106 88 126 58 b 256 306 219 58 256 128 l 256 417 "},"Ĉ":{"ha":390,"x_min":0,"x_max":0,"o":"m 100 1014 l 150 1238 l 242 1238 l 292 1014 l 228 1014 l 197 1190 l 194 1190 l 164 1014 m 360 419 l 360 181 b 196 -14 360 50 296 -14 b 31 181 94 -14 31 50 l 31 790 b 196 985 31 921 94 985 b 360 790 296 985 360 921 l 360 565 l 281 565 l 281 804 b 197 907 281 882 243 907 b 114 804 151 907 114 882 l 114 167 b 197 64 114 90 151 64 b 281 167 243 64 281 89 l 281 419 "},"Ć":{"ha":390,"x_min":0,"x_max":0,"o":"m 161 1014 l 206 1238 l 288 1238 l 217 1014 m 360 419 l 360 181 b 196 -14 360 50 296 -14 b 31 181 94 -14 31 50 l 31 790 b 196 985 31 921 94 985 b 360 790 296 985 360 921 l 360 565 l 281 565 l 281 804 b 197 907 281 882 243 907 b 114 804 151 907 114 882 l 114 167 b 197 64 114 90 151 64 b 281 167 243 64 281 89 l 281 419 "},"Č":{"ha":390,"x_min":0,"x_max":0,"o":"m 194 1061 l 197 1061 l 226 1238 l 290 1238 l 240 1014 l 149 1014 l 99 1238 l 163 1238 m 360 419 l 360 181 b 196 -14 360 50 296 -14 b 31 181 94 -14 31 50 l 31 790 b 196 985 31 921 94 985 b 360 790 296 985 360 921 l 360 565 l 281 565 l 281 804 b 197 907 281 882 243 907 b 114 804 151 907 114 882 l 114 167 b 197 64 114 90 151 64 b 281 167 243 64 281 89 l 281 419 "},"Ċ":{"ha":390,"x_min":0,"x_max":0,"o":"m 158 1040 l 158 1136 l 233 1136 l 233 1040 m 360 419 l 360 181 b 196 -14 360 50 296 -14 b 31 181 94 -14 31 50 l 31 790 b 196 985 31 921 94 985 b 360 790 296 985 360 921 l 360 565 l 281 565 l 281 804 b 199 907 281 882 244 907 b 114 804 151 907 114 882 l 114 167 b 199 64 114 90 151 64 b 281 167 244 64 281 89 l 281 419 "},"ĉ":{"ha":357,"x_min":0,"x_max":0,"o":"m 85 821 l 135 1044 l 226 1044 l 276 821 l 213 821 l 182 997 l 179 997 l 149 821 m 181 58 b 256 164 222 58 256 86 l 256 329 l 329 329 l 329 181 b 179 -14 329 50 271 -14 b 28 181 88 -14 28 50 l 28 599 b 179 792 28 729 88 792 b 329 599 271 792 329 729 l 329 463 l 256 463 l 256 614 b 181 719 256 692 222 719 b 106 614 139 719 106 692 l 106 164 b 181 58 106 86 139 58 "},"ć":{"ha":357,"x_min":0,"x_max":0,"o":"m 144 821 l 189 1044 l 271 1044 l 200 821 m 181 58 b 256 164 222 58 256 86 l 256 329 l 329 329 l 329 181 b 179 -14 329 50 271 -14 b 28 181 88 -14 28 50 l 28 599 b 179 792 28 729 88 792 b 329 599 271 792 329 729 l 329 463 l 256 463 l 256 614 b 181 719 256 692 222 719 b 106 614 139 719 106 692 l 106 164 b 181 58 106 86 139 58 "},"č":{"ha":357,"x_min":0,"x_max":0,"o":"m 179 868 l 182 868 l 211 1044 l 275 1044 l 225 821 l 133 821 l 83 1044 l 147 1044 m 181 58 b 256 164 222 58 256 86 l 256 329 l 329 329 l 329 181 b 179 -14 329 50 271 -14 b 28 181 88 -14 28 50 l 28 599 b 179 792 28 729 88 792 b 329 599 271 792 329 729 l 329 463 l 256 463 l 256 614 b 181 719 256 692 222 719 b 106 614 139 719 106 692 l 106 164 b 181 58 106 86 139 58 "},"ċ":{"ha":357,"x_min":0,"x_max":0,"o":"m 142 847 l 142 943 l 217 943 l 217 847 m 181 58 b 256 164 222 58 256 86 l 256 329 l 329 329 l 329 181 b 179 -14 329 50 271 -14 b 28 181 88 -14 28 50 l 28 599 b 179 792 28 729 88 792 b 329 599 271 792 329 729 l 329 463 l 256 463 l 256 614 b 181 719 256 692 222 719 b 106 614 139 719 106 692 l 106 164 b 181 58 106 86 139 58 "},"Ď":{"ha":394,"x_min":0,"x_max":0,"o":"m 186 1061 l 189 1061 l 218 1238 l 282 1238 l 232 1014 l 140 1014 l 90 1238 l 154 1238 m 31 971 l 197 971 b 364 776 299 971 364 907 l 364 194 b 197 0 364 64 299 0 l 31 0 m 197 78 b 281 181 243 78 281 103 l 281 790 b 197 893 281 868 243 893 l 114 893 l 114 78 "},"ď":{"ha":361,"x_min":0,"x_max":0,"o":"m 263 0 l 256 111 l 253 111 b 140 -14 238 22 199 -14 b 28 151 64 -14 28 49 l 28 626 b 140 792 28 729 64 792 b 253 667 199 792 238 756 l 256 667 l 256 999 l 333 999 l 333 0 m 390 999 l 465 999 l 414 726 l 369 726 m 163 58 b 256 306 219 58 256 128 l 256 472 b 163 719 256 650 219 719 b 106 621 126 719 106 690 l 106 157 b 163 58 106 88 126 58 "},"Ĕ":{"ha":308,"x_min":0,"x_max":0,"o":"m 114 1163 b 157 1089 114 1115 129 1089 b 200 1163 185 1089 200 1115 l 263 1163 b 157 1026 263 1074 222 1026 b 51 1163 92 1026 51 1074 m 114 893 l 114 550 l 276 550 l 276 475 l 114 475 l 114 78 l 294 78 l 294 0 l 31 0 l 31 971 l 288 971 l 288 893 "},"Ė":{"ha":308,"x_min":0,"x_max":0,"o":"m 119 1040 l 119 1136 l 194 1136 l 194 1040 m 114 893 l 114 550 l 276 550 l 276 475 l 114 475 l 114 78 l 294 78 l 294 0 l 31 0 l 31 971 l 288 971 l 288 893 "},"Ē":{"ha":308,"x_min":0,"x_max":0,"o":"m 240 1043 l 74 1043 l 74 1106 l 240 1106 m 114 893 l 114 550 l 276 550 l 276 475 l 114 475 l 114 78 l 294 78 l 294 0 l 31 0 l 31 971 l 288 971 l 288 893 "},"Ę":{"ha":308,"x_min":0,"x_max":0,"o":"m 114 893 l 114 550 l 276 550 l 276 475 l 114 475 l 114 78 l 294 78 l 294 0 l 293 0 b 188 -58 233 -7 188 -29 b 256 -93 188 -81 213 -93 b 296 -89 269 -93 283 -92 l 296 -164 b 243 -168 278 -167 260 -168 b 124 -90 172 -168 124 -137 b 215 0 124 -49 158 -17 l 31 0 l 31 971 l 288 971 l 288 893 "},"ę":{"ha":357,"x_min":0,"x_max":0,"o":"m 181 58 b 256 164 222 58 256 86 l 256 301 l 329 301 l 329 181 b 217 -10 329 69 286 7 b 175 -58 192 -22 175 -39 b 243 -97 175 -83 200 -97 b 283 -93 257 -97 271 -96 l 283 -168 b 231 -172 265 -171 246 -172 b 111 -89 158 -172 111 -140 b 161 -12 111 -58 129 -32 b 28 181 79 -6 28 58 l 28 599 b 179 792 28 729 88 792 b 329 599 271 792 329 729 l 329 365 l 106 365 l 106 164 b 181 58 106 86 139 58 m 256 432 l 256 614 b 181 719 256 692 222 719 b 106 614 139 719 106 692 l 106 432 "},"ě":{"ha":357,"x_min":0,"x_max":0,"o":"m 179 868 l 182 868 l 211 1044 l 275 1044 l 225 821 l 133 821 l 83 1044 l 147 1044 m 181 58 b 256 164 222 58 256 86 l 256 301 l 329 301 l 329 181 b 179 -14 329 50 271 -14 b 28 181 88 -14 28 50 l 28 599 b 179 792 28 729 88 792 b 329 599 271 792 329 729 l 329 365 l 106 365 l 106 164 b 181 58 106 86 139 58 m 256 432 l 256 614 b 181 719 256 692 222 719 b 106 614 139 719 106 692 l 106 432 "},"ĕ":{"ha":357,"x_min":0,"x_max":0,"o":"m 136 968 b 179 896 136 922 151 896 b 222 968 207 896 222 922 l 285 968 b 179 833 285 879 244 833 b 74 968 114 833 74 879 m 181 58 b 256 164 222 58 256 86 l 256 301 l 329 301 l 329 181 b 179 -14 329 50 271 -14 b 28 181 88 -14 28 50 l 28 599 b 179 792 28 729 88 792 b 329 599 271 792 329 729 l 329 365 l 106 365 l 106 164 b 181 58 106 86 139 58 m 256 432 l 256 614 b 181 719 256 692 222 719 b 106 614 139 719 106 692 l 106 432 "},"ė":{"ha":357,"x_min":0,"x_max":0,"o":"m 142 847 l 142 943 l 217 943 l 217 847 m 181 58 b 256 164 222 58 256 86 l 256 301 l 329 301 l 329 181 b 179 -14 329 50 271 -14 b 28 181 88 -14 28 50 l 28 599 b 179 792 28 729 88 792 b 329 599 271 792 329 729 l 329 365 l 106 365 l 106 164 b 181 58 106 86 139 58 m 256 432 l 256 614 b 181 719 256 692 222 719 b 106 614 139 719 106 692 l 106 432 "},"ē":{"ha":357,"x_min":0,"x_max":0,"o":"m 263 850 l 96 850 l 96 913 l 263 913 m 181 58 b 256 164 222 58 256 86 l 256 301 l 329 301 l 329 181 b 179 -14 329 50 271 -14 b 28 181 88 -14 28 50 l 28 599 b 179 792 28 729 88 792 b 329 599 271 792 329 729 l 329 365 l 106 365 l 106 164 b 181 58 106 86 139 58 m 256 432 l 256 614 b 181 719 256 692 222 719 b 106 614 139 719 106 692 l 106 432 "},"Ě":{"ha":308,"x_min":0,"x_max":0,"o":"m 157 1061 l 160 1061 l 189 1238 l 253 1238 l 203 1014 l 111 1014 l 61 1238 l 125 1238 m 114 893 l 114 550 l 276 550 l 276 475 l 114 475 l 114 78 l 294 78 l 294 0 l 31 0 l 31 971 l 288 971 l 288 893 "},"Ĝ":{"ha":390,"x_min":0,"x_max":0,"o":"m 100 1014 l 150 1238 l 242 1238 l 292 1014 l 228 1014 l 197 1190 l 194 1190 l 164 1014 m 303 147 b 175 -14 293 39 247 -14 b 31 181 88 -14 31 63 l 31 790 b 196 985 31 914 90 985 b 360 790 301 985 360 915 l 360 593 l 281 593 l 281 804 b 197 907 281 871 251 907 b 114 804 143 907 114 871 l 114 167 b 192 64 114 100 143 64 b 276 181 249 64 276 114 l 276 447 l 183 447 l 183 522 l 360 522 l 360 0 l 317 0 l 306 147 "},"Ğ":{"ha":390,"x_min":0,"x_max":0,"o":"m 153 1163 b 196 1089 153 1115 168 1089 b 239 1163 224 1089 239 1115 l 301 1163 b 196 1026 301 1074 261 1026 b 90 1163 131 1026 90 1074 m 303 147 b 175 -14 293 39 247 -14 b 31 181 88 -14 31 63 l 31 790 b 196 985 31 914 90 985 b 360 790 301 985 360 915 l 360 593 l 281 593 l 281 804 b 197 907 281 871 251 907 b 114 804 143 907 114 871 l 114 167 b 192 64 114 100 143 64 b 276 181 249 64 276 114 l 276 447 l 183 447 l 183 522 l 360 522 l 360 0 l 317 0 l 306 147 "},"Ġ":{"ha":390,"x_min":0,"x_max":0,"o":"m 158 1040 l 158 1136 l 233 1136 l 233 1040 m 303 147 b 175 -14 293 39 247 -14 b 31 181 88 -14 31 63 l 31 790 b 196 985 31 914 90 985 b 360 790 301 985 360 915 l 360 593 l 281 593 l 281 804 b 197 907 281 871 251 907 b 114 804 143 907 114 871 l 114 167 b 192 64 114 100 143 64 b 276 181 249 64 276 114 l 276 447 l 183 447 l 183 522 l 360 522 l 360 0 l 317 0 l 306 147 "},"Ģ":{"ha":390,"x_min":0,"x_max":0,"o":"m 303 147 b 175 -14 293 39 247 -14 b 31 181 88 -14 31 63 l 31 790 b 196 985 31 914 90 985 b 360 790 301 985 360 915 l 360 593 l 281 593 l 281 804 b 197 907 281 871 251 907 b 114 804 143 907 114 871 l 114 167 b 192 64 114 100 143 64 b 276 181 249 64 276 114 l 276 447 l 183 447 l 183 522 l 360 522 l 360 0 l 317 0 l 306 147 m 157 -40 l 238 -40 l 185 -207 l 143 -207 "},"ĝ":{"ha":361,"x_min":0,"x_max":0,"o":"m 72 821 l 122 1044 l 214 1044 l 264 821 l 200 821 l 169 997 l 167 997 l 136 821 m 108 0 l 108 -42 b 182 -147 108 -119 142 -147 b 256 -42 222 -147 256 -119 l 256 167 l 253 167 b 140 42 238 78 199 42 b 28 207 64 42 28 104 l 28 626 b 140 792 28 729 64 792 b 253 667 199 792 238 756 l 256 667 l 263 778 l 333 778 l 333 -26 b 185 -221 333 -157 275 -221 b 35 -26 94 -221 35 -157 l 35 0 m 163 114 b 256 361 219 114 256 183 l 256 472 b 163 719 256 650 219 719 b 106 621 126 719 106 690 l 106 213 b 163 114 106 143 126 114 "},"ğ":{"ha":361,"x_min":0,"x_max":0,"o":"m 124 968 b 167 896 124 922 139 896 b 210 968 194 896 210 922 l 272 968 b 167 833 272 879 232 833 b 61 968 101 833 61 879 m 108 0 l 108 -42 b 182 -147 108 -119 142 -147 b 256 -42 222 -147 256 -119 l 256 167 l 253 167 b 140 42 238 78 199 42 b 28 207 64 42 28 104 l 28 626 b 140 792 28 729 64 792 b 253 667 199 792 238 756 l 256 667 l 263 778 l 333 778 l 333 -26 b 185 -221 333 -157 275 -221 b 35 -26 94 -221 35 -157 l 35 0 m 163 114 b 256 361 219 114 256 183 l 256 472 b 163 719 256 650 219 719 b 106 621 126 719 106 690 l 106 213 b 163 114 106 143 126 114 "},"ġ":{"ha":361,"x_min":0,"x_max":0,"o":"m 129 847 l 129 943 l 204 943 l 204 847 m 108 0 l 108 -42 b 182 -147 108 -119 142 -147 b 256 -42 222 -147 256 -119 l 256 167 l 253 167 b 140 42 238 78 199 42 b 28 207 64 42 28 104 l 28 626 b 140 792 28 729 64 792 b 253 667 199 792 238 756 l 256 667 l 263 778 l 333 778 l 333 -26 b 185 -221 333 -157 275 -221 b 35 -26 94 -221 35 -157 l 35 0 m 163 114 b 256 361 219 114 256 183 l 256 472 b 163 719 256 650 219 719 b 106 621 126 719 106 690 l 106 213 b 163 114 106 143 126 114 "},"ģ":{"ha":361,"x_min":0,"x_max":0,"o":"m 204 819 l 124 819 l 176 986 l 218 986 m 108 0 l 108 -42 b 182 -147 108 -119 142 -147 b 256 -42 222 -147 256 -119 l 256 167 l 253 167 b 140 42 238 78 199 42 b 28 207 64 42 28 104 l 28 626 b 140 792 28 729 64 792 b 253 667 199 792 238 756 l 256 667 l 263 778 l 333 778 l 333 -26 b 185 -221 333 -157 275 -221 b 35 -26 94 -221 35 -157 l 35 0 m 163 114 b 256 361 219 114 256 183 l 256 472 b 163 719 256 650 219 719 b 106 621 126 719 106 690 l 106 213 b 163 114 106 143 126 114 "},"Ĥ":{"ha":394,"x_min":0,"x_max":0,"o":"m 103 1014 l 153 1238 l 244 1238 l 294 1014 l 231 1014 l 200 1190 l 197 1190 l 167 1014 m 364 971 l 364 0 l 281 0 l 281 474 l 114 474 l 114 0 l 31 0 l 31 971 l 114 971 l 114 551 l 281 551 l 281 971 "},"ĥ":{"ha":361,"x_min":0,"x_max":0,"o":"m -33 1028 l 18 1251 l 110 1251 l 160 1028 l 96 1028 l 65 1204 l 63 1204 l 32 1028 m 28 999 l 106 999 l 106 651 l 108 651 b 232 792 126 744 168 792 b 333 639 300 792 333 740 l 333 0 l 256 0 l 256 628 b 200 719 256 692 239 719 b 106 501 138 719 106 646 l 106 0 l 28 0 "},"Ħ":{"ha":394,"x_min":0,"x_max":0,"o":"m 364 971 l 364 817 l 406 817 l 406 739 l 364 739 l 364 0 l 281 0 l 281 474 l 114 474 l 114 0 l 31 0 l 31 739 l -11 739 l -11 817 l 31 817 l 31 971 l 114 971 l 114 817 l 281 817 l 281 971 m 281 551 l 281 739 l 114 739 l 114 551 "},"ħ":{"ha":361,"x_min":0,"x_max":0,"o":"m 28 832 l -14 832 l -14 904 l 28 904 l 28 999 l 106 999 l 106 904 l 194 904 l 194 832 l 106 832 l 106 651 l 108 651 b 232 792 126 744 168 792 b 333 639 300 792 333 740 l 333 0 l 256 0 l 256 628 b 200 719 256 692 239 719 b 106 501 138 719 106 646 l 106 0 l 28 0 "},"Ĩ":{"ha":144,"x_min":0,"x_max":0,"o":"m -47 1036 b 10 1139 -47 1103 -31 1139 b 74 1118 31 1139 53 1129 b 126 1101 93 1110 110 1101 b 149 1126 142 1101 149 1110 l 149 1139 l 190 1139 l 190 1131 b 136 1028 190 1064 172 1028 b 71 1049 117 1028 93 1039 b 17 1065 50 1057 32 1065 b -6 1040 3 1065 -6 1057 l -6 1028 l -47 1028 m 114 971 l 114 0 l 31 0 l 31 971 "},"Ĭ":{"ha":144,"x_min":0,"x_max":0,"o":"m 29 1161 b 72 1089 29 1114 44 1089 b 115 1161 100 1089 115 1114 l 178 1161 b 72 1026 178 1072 138 1026 b -33 1161 7 1026 -33 1072 m 114 971 l 114 0 l 31 0 l 31 971 "},"İ":{"ha":144,"x_min":0,"x_max":0,"o":"m 35 1040 l 35 1136 l 110 1136 l 110 1040 m 114 971 l 114 0 l 31 0 l 31 971 "},"Ī":{"ha":144,"x_min":0,"x_max":0,"o":"m 156 1043 l -11 1043 l -11 1106 l 156 1106 m 114 971 l 114 0 l 31 0 l 31 971 "},"Į":{"ha":144,"x_min":0,"x_max":0,"o":"m 114 971 l 114 0 l 113 0 b 7 -58 53 -7 7 -29 b 75 -93 7 -81 32 -93 b 115 -89 89 -93 103 -92 l 115 -164 b 63 -168 97 -167 79 -168 b -57 -90 -8 -168 -57 -137 b 35 0 -57 -49 -22 -17 l 31 0 l 31 971 "},"į":{"ha":133,"x_min":0,"x_max":0,"o":"m 28 985 l 106 985 l 106 860 l 28 860 m 107 -164 b 54 -168 89 -167 71 -168 b -65 -90 -17 -168 -65 -137 b 28 0 -65 -49 -29 -15 l 28 778 l 106 778 l 106 0 l 104 0 b -1 -58 44 -7 -1 -29 b 67 -93 -1 -81 24 -93 b 107 -89 81 -93 94 -92 "},"ĩ":{"ha":175,"x_min":0,"x_max":0,"o":"m -32 843 b 25 946 -32 910 -15 946 b 89 925 46 946 68 936 b 142 908 108 917 125 908 b 164 933 157 908 164 917 l 164 946 l 206 946 l 206 938 b 151 835 206 871 188 835 b 86 856 132 835 108 846 b 32 872 65 864 47 872 b 10 847 18 872 10 864 l 10 835 l -32 835 m 49 778 l 126 778 l 126 0 l 49 0 "},"ĭ":{"ha":175,"x_min":0,"x_max":0,"o":"m 43 968 b 86 896 43 922 58 896 b 128 968 113 896 128 922 l 192 968 b 86 833 192 879 150 833 b -19 968 21 833 -19 879 m 49 778 l 126 778 l 126 0 l 49 0 "},"ī":{"ha":175,"x_min":0,"x_max":0,"o":"m 171 850 l 4 850 l 4 913 l 171 913 m 49 778 l 126 778 l 126 0 l 49 0 "},"Ĵ":{"ha":390,"x_min":0,"x_max":0,"o":"m 222 1014 l 272 1238 l 364 1238 l 414 1014 l 350 1014 l 319 1190 l 317 1190 l 286 1014 m 110 350 l 110 167 b 193 64 110 90 147 64 b 276 167 239 64 276 89 l 276 971 l 360 971 l 360 168 b 196 -14 360 46 296 -14 b 31 168 94 -14 31 46 l 31 350 "},"ĵ":{"ha":133,"x_min":0,"x_max":0,"o":"m -29 821 l 22 1044 l 114 1044 l 164 821 l 100 821 l 69 997 l 67 997 l 36 821 m -74 -144 b -36 -147 -58 -147 -46 -147 b 28 -61 10 -147 28 -124 l 28 778 l 106 778 l 106 -62 b -26 -221 106 -161 57 -221 b -74 -214 -39 -221 -56 -219 "},"Ķ":{"ha":408,"x_min":0,"x_max":0,"o":"m 31 971 l 114 971 l 114 556 l 117 556 l 313 971 l 397 971 l 186 526 l 408 0 l 318 0 l 117 496 l 114 496 l 114 0 l 31 0 m 175 -40 l 256 -40 l 203 -207 l 161 -207 "},"ķ":{"ha":376,"x_min":0,"x_max":0,"o":"m 28 999 l 106 999 l 106 463 l 108 463 l 274 778 l 356 778 l 167 422 l 367 0 l 279 0 l 108 381 l 106 381 l 106 0 l 28 0 m 151 -40 l 232 -40 l 179 -207 l 138 -207 "},"Ļ":{"ha":289,"x_min":0,"x_max":0,"o":"m 114 971 l 114 78 l 281 78 l 281 0 l 31 0 l 31 971 m 117 -40 l 197 -40 l 144 -207 l 103 -207 "},"Ĺ":{"ha":289,"x_min":0,"x_max":0,"o":"m 38 1014 l 82 1238 l 164 1238 l 93 1014 m 114 971 l 114 78 l 281 78 l 281 0 l 31 0 l 31 971 "},"Ŀ":{"ha":289,"x_min":0,"x_max":0,"o":"m 114 972 l 114 78 l 281 78 l 281 0 l 31 0 l 31 972 m 183 467 l 183 563 l 258 563 l 258 467 "},"ŀ":{"ha":133,"x_min":0,"x_max":0,"o":"m 28 1000 l 106 1000 l 106 1 l 28 1 m 153 444 l 153 540 l 228 540 l 228 444 "},"ļ":{"ha":133,"x_min":0,"x_max":0,"o":"m 28 999 l 106 999 l 106 0 l 28 0 m 26 -40 l 107 -40 l 54 -207 l 13 -207 "},"ľ":{"ha":133,"x_min":0,"x_max":0,"o":"m 28 999 l 106 999 l 106 0 l 28 0 m 163 999 l 238 999 l 186 726 l 142 726 "},"Ő":{"ha":394,"x_min":0,"x_max":0,"o":"m 160 1238 l 243 1238 l 169 1014 l 114 1014 m 263 1238 l 346 1238 l 272 1014 l 217 1014 m 197 -14 b 31 181 96 -14 31 50 l 31 790 b 197 985 31 921 96 985 b 364 790 299 985 364 921 l 364 181 b 197 -14 364 50 299 -14 m 197 64 b 281 167 243 64 281 89 l 281 804 b 197 907 281 882 243 907 b 114 804 151 907 114 882 l 114 167 b 197 64 114 90 151 64 "},"ő":{"ha":361,"x_min":0,"x_max":0,"o":"m 143 1044 l 226 1044 l 153 821 l 97 821 m 246 1044 l 329 1044 l 256 821 l 200 821 m 181 -14 b 28 181 88 -14 28 50 l 28 599 b 181 792 28 729 88 792 b 333 599 274 792 333 729 l 333 181 b 181 -14 333 50 274 -14 m 181 58 b 256 164 222 58 256 86 l 256 614 b 181 719 256 692 222 719 b 106 614 139 719 106 692 l 106 164 b 181 58 106 86 139 58 "},"Ŕ":{"ha":390,"x_min":0,"x_max":0,"o":"m 139 1014 l 183 1238 l 265 1238 l 194 1014 m 31 971 l 193 971 b 360 779 300 971 360 903 l 360 661 b 251 490 360 563 328 501 l 251 488 b 344 340 315 479 333 443 l 381 0 l 297 0 l 263 343 b 182 446 254 425 238 446 l 114 446 l 114 0 l 31 0 m 197 521 b 281 631 251 521 281 564 l 281 790 b 197 893 281 857 251 893 l 114 893 l 114 521 "},"ŕ":{"ha":258,"x_min":0,"x_max":0,"o":"m 111 821 l 156 1044 l 238 1044 l 167 821 m 28 778 l 99 778 l 106 610 l 108 610 b 218 792 125 715 150 792 b 247 788 226 792 236 790 l 247 683 b 221 685 238 685 229 685 b 106 449 129 685 106 582 l 106 0 l 28 0 "},"Ŗ":{"ha":390,"x_min":0,"x_max":0,"o":"m 31 971 l 193 971 b 360 779 300 971 360 903 l 360 661 b 251 490 360 563 328 501 l 251 488 b 344 340 315 479 333 443 l 381 0 l 297 0 l 263 343 b 182 446 254 425 238 446 l 114 446 l 114 0 l 31 0 m 197 521 b 281 631 251 521 281 564 l 281 790 b 197 893 281 857 251 893 l 114 893 l 114 521 m 165 -40 l 246 -40 l 193 -207 l 151 -207 "},"Ř":{"ha":390,"x_min":0,"x_max":0,"o":"m 174 1061 l 176 1061 l 206 1238 l 269 1238 l 219 1014 l 128 1014 l 78 1238 l 142 1238 m 31 971 l 193 971 b 360 779 300 971 360 903 l 360 661 b 251 490 360 563 328 501 l 251 488 b 344 340 315 479 333 443 l 381 0 l 297 0 l 263 343 b 182 446 254 425 238 446 l 114 446 l 114 0 l 31 0 m 197 521 b 281 631 251 521 281 564 l 281 790 b 197 893 281 857 251 893 l 114 893 l 114 521 "},"ŗ":{"ha":258,"x_min":0,"x_max":0,"o":"m 28 778 l 99 778 l 106 610 l 108 610 b 218 792 125 715 150 792 b 247 788 226 792 236 790 l 247 683 b 221 685 238 685 229 685 b 106 449 129 685 106 582 l 106 0 l 28 0 m 81 -40 l 161 -40 l 108 -207 l 67 -207 "},"ř":{"ha":258,"x_min":0,"x_max":0,"o":"m 146 868 l 149 868 l 178 1044 l 242 1044 l 192 821 l 100 821 l 50 1044 l 114 1044 m 28 778 l 99 778 l 106 610 l 108 610 b 218 792 125 715 150 792 b 247 788 226 792 236 790 l 247 683 b 221 685 238 685 229 685 b 106 449 129 685 106 582 l 106 0 l 28 0 "},"Ŝ":{"ha":375,"x_min":0,"x_max":0,"o":"m 93 1014 l 143 1238 l 235 1238 l 285 1014 l 221 1014 l 190 1190 l 188 1190 l 157 1014 m 104 336 l 104 167 b 188 64 104 89 142 64 b 271 167 233 64 271 90 l 271 269 b 176 453 271 379 254 394 l 154 469 b 29 685 99 511 29 563 l 29 790 b 188 985 29 921 92 985 b 346 790 283 985 346 921 l 346 649 l 267 649 l 267 804 b 188 907 267 882 231 907 b 108 804 144 907 108 882 l 108 715 b 208 529 108 606 131 585 l 232 513 b 354 300 283 476 354 422 l 354 181 b 188 -14 354 50 289 -14 b 21 181 86 -14 21 50 l 21 336 "},"Ś":{"ha":375,"x_min":0,"x_max":0,"o":"m 153 1014 l 197 1238 l 279 1238 l 208 1014 m 104 336 l 104 167 b 188 64 104 89 142 64 b 271 167 233 64 271 90 l 271 269 b 176 453 271 379 254 394 l 154 469 b 29 685 99 511 29 563 l 29 790 b 188 985 29 921 92 985 b 346 790 283 985 346 921 l 346 649 l 267 649 l 267 804 b 188 907 267 882 231 907 b 108 804 144 907 108 882 l 108 715 b 208 529 108 606 131 585 l 232 513 b 354 300 283 476 354 422 l 354 181 b 188 -14 354 50 289 -14 b 21 181 86 -14 21 50 l 21 336 "},"Ş":{"ha":375,"x_min":0,"x_max":0,"o":"m 104 336 l 104 167 b 188 64 104 89 142 64 b 271 167 233 64 271 90 l 271 269 b 176 453 271 379 254 394 l 154 469 b 29 685 99 511 29 563 l 29 790 b 188 985 29 921 92 985 b 346 790 283 985 346 921 l 346 649 l 267 649 l 267 804 b 188 907 267 882 231 907 b 108 804 144 907 108 882 l 108 715 b 208 529 108 606 131 585 l 232 513 b 354 300 283 476 354 422 l 354 181 b 207 -12 354 58 297 -6 l 203 -35 b 308 -104 267 -36 308 -62 b 194 -178 308 -147 261 -178 b 136 -171 176 -178 154 -175 l 136 -119 b 189 -125 158 -124 176 -125 b 236 -100 218 -125 236 -115 b 157 -67 236 -79 206 -67 l 165 -12 b 21 181 76 -4 21 60 l 21 336 "},"Ű":{"ha":394,"x_min":0,"x_max":0,"o":"m 160 1238 l 243 1238 l 169 1014 l 114 1014 m 263 1238 l 346 1238 l 272 1014 l 217 1014 m 114 971 l 114 167 b 197 64 114 90 151 64 b 281 167 243 64 281 89 l 281 971 l 364 971 l 364 168 b 197 -14 364 46 299 -14 b 31 168 96 -14 31 46 l 31 971 "},"ų":{"ha":361,"x_min":0,"x_max":0,"o":"m 333 0 l 332 0 b 226 -58 272 -7 226 -29 b 294 -93 226 -81 251 -93 b 335 -89 308 -93 322 -92 l 335 -164 b 282 -168 317 -167 299 -168 b 163 -90 211 -168 163 -137 b 264 3 163 -47 201 -12 l 256 126 l 253 126 b 129 -14 235 33 193 -14 b 28 139 61 -14 28 38 l 28 778 l 106 778 l 106 150 b 161 58 106 86 122 58 b 256 276 224 58 256 132 l 256 778 l 333 778 "},"ű":{"ha":361,"x_min":0,"x_max":0,"o":"m 143 1044 l 226 1044 l 153 821 l 97 821 m 246 1044 l 329 1044 l 256 821 l 200 821 m 333 0 l 264 0 l 256 126 l 253 126 b 129 -14 235 33 193 -14 b 28 139 61 -14 28 38 l 28 778 l 106 778 l 106 150 b 161 58 106 86 122 58 b 256 276 224 58 256 132 l 256 778 l 333 778 "},"Ŵ":{"ha":647,"x_min":0,"x_max":0,"o":"m 231 1014 l 281 1238 l 372 1238 l 422 1014 l 358 1014 l 328 1190 l 325 1190 l 294 1014 m 11 971 l 96 971 l 171 58 l 174 58 l 267 971 l 385 971 l 476 58 l 479 58 l 554 971 l 636 971 l 543 0 l 415 0 l 375 378 l 325 899 l 322 899 l 272 378 l 232 0 l 104 0 "},"ŵ":{"ha":650,"x_min":0,"x_max":0,"o":"m 233 821 l 283 1044 l 375 1044 l 425 821 l 361 821 l 331 997 l 328 997 l 297 821 m 11 778 l 90 778 l 176 58 l 179 58 l 264 778 l 389 778 l 471 58 l 474 58 l 564 778 l 639 778 l 528 0 l 418 0 l 326 697 l 324 697 l 232 0 l 122 0 "},"Ŷ":{"ha":411,"x_min":0,"x_max":0,"o":"m 114 1014 l 164 1238 l 256 1238 l 306 1014 l 242 1014 l 211 1190 l 208 1190 l 178 1014 m 250 356 l 250 0 l 167 0 l 167 356 l 11 971 l 96 971 l 208 463 l 211 463 l 318 971 l 400 971 "},"ŷ":{"ha":350,"x_min":0,"x_max":0,"o":"m 83 821 l 133 1044 l 225 1044 l 275 821 l 211 821 l 181 997 l 178 997 l 147 821 m 26 -128 b 135 -56 106 -128 135 -114 b 128 11 135 -40 133 -22 l 10 778 l 89 778 l 176 79 l 179 79 l 267 778 l 340 778 l 218 -46 b 43 -200 200 -167 157 -200 l 26 -200 "},"Ÿ":{"ha":411,"x_min":0,"x_max":0,"o":"m 117 1138 l 192 1138 l 192 1040 l 117 1040 m 224 1138 l 299 1138 l 299 1040 l 224 1040 m 250 356 l 250 0 l 167 0 l 167 356 l 11 971 l 96 971 l 208 463 l 211 463 l 318 971 l 400 971 "},"Ź":{"ha":383,"x_min":0,"x_max":0,"o":"m 157 1014 l 201 1238 l 283 1238 l 213 1014 m 14 78 l 269 893 l 28 893 l 28 971 l 354 971 l 354 893 l 99 78 l 369 78 l 369 0 l 14 0 "},"Ž":{"ha":383,"x_min":0,"x_max":0,"o":"m 192 1061 l 194 1061 l 224 1238 l 288 1238 l 238 1014 l 146 1014 l 96 1238 l 160 1238 m 14 78 l 269 893 l 28 893 l 28 971 l 354 971 l 354 893 l 99 78 l 369 78 l 369 0 l 14 0 "},"Ż":{"ha":383,"x_min":0,"x_max":0,"o":"m 154 1040 l 154 1136 l 229 1136 l 229 1040 m 14 78 l 269 893 l 28 893 l 28 971 l 354 971 l 354 893 l 99 78 l 369 78 l 369 0 l 14 0 "},"ź":{"ha":333,"x_min":0,"x_max":0,"o":"m 131 821 l 175 1044 l 257 1044 l 186 821 m 10 72 l 224 706 l 24 706 l 24 778 l 304 778 l 304 706 l 90 72 l 319 72 l 319 0 l 10 0 "},"ž":{"ha":333,"x_min":0,"x_max":0,"o":"m 165 868 l 168 868 l 197 1044 l 261 1044 l 211 821 l 119 821 l 69 1044 l 133 1044 m 10 72 l 224 706 l 24 706 l 24 778 l 304 778 l 304 706 l 90 72 l 319 72 l 319 0 l 10 0 "},"ż":{"ha":333,"x_min":0,"x_max":0,"o":"m 128 847 l 128 943 l 203 943 l 203 847 m 10 72 l 224 706 l 24 706 l 24 778 l 304 778 l 304 706 l 90 72 l 319 72 l 319 0 l 10 0 "},"Š":{"ha":375,"x_min":0,"x_max":0,"o":"m 188 1061 l 190 1061 l 219 1238 l 283 1238 l 233 1014 l 142 1014 l 92 1238 l 156 1238 m 104 336 l 104 167 b 188 64 104 89 142 64 b 271 167 233 64 271 90 l 271 269 b 176 453 271 379 254 394 l 154 469 b 29 685 99 511 29 563 l 29 790 b 188 985 29 921 92 985 b 346 790 283 985 346 921 l 346 649 l 267 649 l 267 804 b 188 907 267 882 231 907 b 108 804 144 907 108 882 l 108 715 b 208 529 108 606 131 585 l 232 513 b 354 300 283 476 354 422 l 354 181 b 188 -14 354 50 289 -14 b 21 181 86 -14 21 50 l 21 336 "},"š":{"ha":343,"x_min":0,"x_max":0,"o":"m 171 868 l 174 868 l 203 1044 l 267 1044 l 217 821 l 125 821 l 75 1044 l 139 1044 m 99 260 l 99 158 b 174 60 99 81 133 60 b 244 158 214 60 244 81 l 244 210 b 157 358 244 293 233 303 l 135 375 b 28 549 88 408 28 456 l 28 606 b 171 792 28 736 81 792 b 314 606 263 792 314 736 l 314 532 l 240 532 l 240 621 b 171 719 240 699 208 719 b 101 621 133 719 101 699 l 101 579 b 192 426 101 489 125 472 l 215 411 b 322 236 263 379 322 339 l 322 174 b 171 -14 322 43 263 -14 b 21 174 79 -14 21 43 l 21 260 "},"Ţ":{"ha":375,"x_min":0,"x_max":0,"o":"m 354 893 l 229 893 l 229 0 l 208 0 l 203 -35 b 308 -104 267 -36 308 -62 b 194 -178 308 -147 261 -178 b 136 -171 176 -178 154 -175 l 136 -119 b 189 -125 158 -124 176 -125 b 236 -100 218 -125 236 -115 b 157 -67 236 -79 206 -67 l 167 0 l 146 0 l 146 893 l 21 893 l 21 971 l 354 971 "},"Ť":{"ha":375,"x_min":0,"x_max":0,"o":"m 188 1061 l 190 1061 l 219 1238 l 283 1238 l 233 1014 l 142 1014 l 92 1238 l 156 1238 m 354 893 l 229 893 l 229 0 l 146 0 l 146 893 l 21 893 l 21 971 l 354 971 "},"ť":{"ha":296,"x_min":0,"x_max":0,"o":"m 243 1054 l 318 1054 l 267 838 l 222 838 m 89 778 l 89 907 l 167 907 l 167 778 l 282 778 l 282 706 l 167 706 l 167 140 b 236 60 167 86 189 60 b 282 65 249 60 264 61 l 282 -4 b 221 -14 260 -11 239 -14 b 89 139 140 -14 89 46 l 89 706 l 14 706 l 14 778 "},"ŧ":{"ha":296,"x_min":0,"x_max":0,"o":"m 89 778 l 89 907 l 167 907 l 167 778 l 282 778 l 282 706 l 167 706 l 167 585 l 282 585 l 282 513 l 167 513 l 167 140 b 236 60 167 86 189 60 b 282 65 249 60 264 61 l 282 -4 b 221 -14 260 -11 239 -14 b 89 139 140 -14 89 46 l 89 513 l 14 513 l 14 585 l 89 585 l 89 706 l 14 706 l 14 778 "},"Ŧ":{"ha":375,"x_min":0,"x_max":0,"o":"m 354 893 l 229 893 l 229 622 l 318 622 l 318 544 l 229 544 l 229 0 l 146 0 l 146 544 l 57 544 l 57 622 l 146 622 l 146 893 l 21 893 l 21 971 l 354 971 "},"ţ":{"ha":296,"x_min":0,"x_max":0,"o":"m 89 778 l 89 907 l 167 907 l 167 778 l 282 778 l 282 706 l 167 706 l 167 140 b 236 60 167 86 189 60 b 282 65 249 60 264 61 l 282 -4 b 221 -14 260 -11 239 -14 b 186 -10 208 -14 197 -12 l 182 -35 b 288 -104 246 -36 288 -62 b 174 -178 288 -147 240 -178 b 115 -171 156 -178 133 -175 l 115 -119 b 168 -125 138 -124 156 -125 b 215 -100 197 -125 215 -115 b 136 -67 215 -79 185 -67 l 147 7 b 89 139 110 33 89 79 l 89 706 l 14 706 l 14 778 "},"Ũ":{"ha":394,"x_min":0,"x_max":0,"o":"m 78 1036 b 135 1139 78 1103 94 1139 b 199 1118 156 1139 178 1129 b 251 1101 218 1110 235 1101 b 274 1126 267 1101 274 1110 l 274 1139 l 315 1139 l 315 1131 b 261 1028 315 1064 297 1028 b 196 1049 242 1028 218 1039 b 142 1065 175 1057 157 1065 b 119 1040 128 1065 119 1057 l 119 1028 l 78 1028 m 114 971 l 114 167 b 197 64 114 90 151 64 b 281 167 243 64 281 89 l 281 971 l 364 971 l 364 168 b 197 -14 364 46 299 -14 b 31 168 96 -14 31 46 l 31 971 "},"Ů":{"ha":394,"x_min":0,"x_max":0,"o":"m 99 1115 b 197 1211 99 1179 147 1211 b 296 1115 247 1211 296 1179 b 197 1018 296 1050 247 1018 b 99 1115 147 1018 99 1050 m 158 1114 b 197 1071 158 1083 176 1071 b 235 1114 217 1071 235 1083 b 197 1158 235 1146 217 1158 b 158 1114 176 1158 158 1146 m 114 971 l 114 167 b 197 64 114 90 151 64 b 281 167 243 64 281 89 l 281 971 l 364 971 l 364 168 b 197 -14 364 46 299 -14 b 31 168 96 -14 31 46 l 31 971 "},"Ŭ":{"ha":394,"x_min":0,"x_max":0,"o":"m 154 1161 b 197 1089 154 1115 169 1089 b 240 1161 225 1089 240 1115 l 303 1161 b 197 1026 303 1072 263 1026 b 92 1161 132 1026 92 1072 m 114 971 l 114 167 b 197 64 114 90 151 64 b 281 167 243 64 281 89 l 281 971 l 364 971 l 364 168 b 197 -14 364 46 299 -14 b 31 168 96 -14 31 46 l 31 971 "},"Ū":{"ha":394,"x_min":0,"x_max":0,"o":"m 281 1043 l 114 1043 l 114 1106 l 281 1106 m 114 971 l 114 167 b 197 64 114 90 151 64 b 281 167 243 64 281 89 l 281 971 l 364 971 l 364 168 b 197 -14 364 46 299 -14 b 31 168 96 -14 31 46 l 31 971 "},"ũ":{"ha":361,"x_min":0,"x_max":0,"o":"m 61 843 b 118 946 61 910 78 946 b 182 925 139 946 161 936 b 235 908 201 917 218 908 b 257 933 250 908 257 917 l 257 946 l 299 946 l 299 938 b 244 835 299 871 281 835 b 179 856 225 835 201 846 b 125 872 158 864 140 872 b 103 847 111 872 103 864 l 103 835 l 61 835 m 333 0 l 264 0 l 256 126 l 253 126 b 129 -14 235 33 193 -14 b 28 139 61 -14 28 38 l 28 778 l 106 778 l 106 150 b 161 58 106 86 122 58 b 256 276 224 58 256 132 l 256 778 l 333 778 "},"ů":{"ha":361,"x_min":0,"x_max":0,"o":"m 82 921 b 181 1018 82 986 129 1018 b 279 921 232 1018 279 986 b 181 825 279 857 232 825 b 82 921 129 825 82 857 m 142 921 b 181 878 142 890 161 878 b 219 921 200 878 219 890 b 181 965 219 953 200 965 b 142 921 161 965 142 953 m 333 0 l 264 0 l 256 126 l 253 126 b 129 -14 235 33 193 -14 b 28 139 61 -14 28 38 l 28 778 l 106 778 l 106 150 b 161 58 106 86 122 58 b 256 276 224 58 256 132 l 256 778 l 333 778 "},"ŭ":{"ha":361,"x_min":0,"x_max":0,"o":"m 138 968 b 181 896 138 922 153 896 b 224 968 208 896 224 922 l 286 968 b 181 833 286 879 246 833 b 75 968 115 833 75 879 m 333 0 l 264 0 l 256 126 l 253 126 b 129 -14 235 33 193 -14 b 28 139 61 -14 28 38 l 28 778 l 106 778 l 106 150 b 161 58 106 86 122 58 b 256 276 224 58 256 132 l 256 778 l 333 778 "},"ū":{"ha":361,"x_min":0,"x_max":0,"o":"m 264 850 l 97 850 l 97 913 l 264 913 m 333 0 l 264 0 l 256 126 l 253 126 b 129 -14 235 33 193 -14 b 28 139 61 -14 28 38 l 28 778 l 106 778 l 106 150 b 161 58 106 86 122 58 b 256 276 224 58 256 132 l 256 778 l 333 778 "},"ĳ":{"ha":267,"x_min":0,"x_max":0,"o":"m 28 985 l 106 985 l 106 860 l 28 860 m 161 985 l 239 985 l 239 860 l 161 860 m 28 778 l 106 778 l 106 0 l 28 0 m 60 -144 b 97 -147 75 -147 88 -147 b 161 -61 143 -147 161 -124 l 161 778 l 239 778 l 239 -62 b 107 -221 239 -161 190 -221 b 60 -214 94 -221 78 -219 "},"Ń":{"ha":436,"x_min":0,"x_max":0,"o":"m 182 1014 l 226 1238 l 308 1238 l 238 1014 m 151 971 l 344 86 l 347 86 l 322 438 l 322 971 l 406 971 l 406 0 l 292 0 l 96 899 l 93 899 l 114 535 l 114 0 l 31 0 l 31 971 "},"Ň":{"ha":436,"x_min":0,"x_max":0,"o":"m 217 1061 l 219 1061 l 249 1238 l 313 1238 l 263 1014 l 171 1014 l 121 1238 l 185 1238 m 151 971 l 344 86 l 347 86 l 322 438 l 322 971 l 406 971 l 406 0 l 292 0 l 96 899 l 93 899 l 114 535 l 114 0 l 31 0 l 31 971 "},"ņ":{"ha":361,"x_min":0,"x_max":0,"o":"m 28 778 l 97 778 l 106 651 l 108 651 b 232 792 126 744 168 792 b 333 639 300 792 333 740 l 333 0 l 256 0 l 256 628 b 200 719 256 692 239 719 b 106 501 138 719 106 646 l 106 0 l 28 0 m 140 -40 l 221 -40 l 168 -207 l 126 -207 "},"ń":{"ha":361,"x_min":0,"x_max":0,"o":"m 146 821 l 190 1044 l 272 1044 l 201 821 m 28 778 l 97 778 l 106 651 l 108 651 b 232 792 126 744 168 792 b 333 639 300 792 333 740 l 333 0 l 256 0 l 256 628 b 200 719 256 692 239 719 b 106 501 138 719 106 646 l 106 0 l 28 0 "},"ň":{"ha":361,"x_min":0,"x_max":0,"o":"m 181 868 l 183 868 l 213 1044 l 276 1044 l 226 821 l 135 821 l 85 1044 l 149 1044 m 28 778 l 97 778 l 106 651 l 108 651 b 232 792 126 744 168 792 b 333 639 300 792 333 740 l 333 0 l 256 0 l 256 628 b 200 719 256 692 239 719 b 106 501 138 719 106 646 l 106 0 l 28 0 "},"Ņ":{"ha":436,"x_min":0,"x_max":0,"o":"m 151 971 l 344 86 l 347 86 l 322 438 l 322 971 l 406 971 l 406 0 l 292 0 l 96 899 l 93 899 l 114 535 l 114 0 l 31 0 l 31 971 m 178 -40 l 258 -40 l 206 -207 l 164 -207 "},"Ŋ":{"ha":525,"x_min":0,"x_max":0,"o":"m 494 971 l 494 0 l 31 0 l 31 971 m 267 553 l 369 901 l 156 901 l 264 553 m 224 485 l 114 817 l 114 153 m 411 814 l 307 485 l 411 157 m 369 69 l 267 418 l 264 418 l 156 69 "},"ŋ":{"ha":519,"x_min":0,"x_max":0,"o":"m 492 971 l 492 0 l 28 0 l 28 971 m 264 553 l 367 901 l 153 901 l 261 553 m 221 485 l 111 817 l 111 153 m 408 814 l 304 485 l 408 157 m 367 69 l 264 418 l 261 418 l 153 69 "},"Ŏ":{"ha":394,"x_min":0,"x_max":0,"o":"m 154 1163 b 197 1089 154 1115 169 1089 b 240 1163 225 1089 240 1115 l 303 1163 b 197 1026 303 1074 263 1026 b 92 1163 132 1026 92 1074 m 197 -14 b 31 181 96 -14 31 50 l 31 790 b 197 985 31 921 96 985 b 364 790 299 985 364 921 l 364 181 b 197 -14 364 50 299 -14 m 197 64 b 281 167 243 64 281 89 l 281 804 b 197 907 281 882 243 907 b 114 804 151 907 114 882 l 114 167 b 197 64 114 90 151 64 "},"Ō":{"ha":394,"x_min":0,"x_max":0,"o":"m 281 1043 l 114 1043 l 114 1106 l 281 1106 m 197 -14 b 31 181 96 -14 31 50 l 31 790 b 197 985 31 921 96 985 b 364 790 299 985 364 921 l 364 181 b 197 -14 364 50 299 -14 m 197 64 b 281 167 243 64 281 89 l 281 804 b 197 907 281 882 243 907 b 114 804 151 907 114 882 l 114 167 b 197 64 114 90 151 64 "},"ŏ":{"ha":361,"x_min":0,"x_max":0,"o":"m 138 968 b 181 896 138 922 153 896 b 224 968 208 896 224 922 l 286 968 b 181 833 286 879 246 833 b 75 968 115 833 75 879 m 181 -14 b 28 181 88 -14 28 50 l 28 599 b 181 792 28 729 88 792 b 333 599 274 792 333 729 l 333 181 b 181 -14 333 50 274 -14 m 181 58 b 256 164 222 58 256 86 l 256 614 b 181 719 256 692 222 719 b 106 614 139 719 106 692 l 106 164 b 181 58 106 86 139 58 "},"ō":{"ha":361,"x_min":0,"x_max":0,"o":"m 264 850 l 97 850 l 97 913 l 264 913 m 181 -14 b 28 181 88 -14 28 50 l 28 599 b 181 792 28 729 88 792 b 333 599 274 792 333 729 l 333 181 b 181 -14 333 50 274 -14 m 181 58 b 256 164 222 58 256 86 l 256 614 b 181 719 256 692 222 719 b 106 614 139 719 106 692 l 106 164 b 181 58 106 86 139 58 "},"ŉ":{"ha":531,"x_min":0,"x_max":0,"o":"m 497 971 l 497 0 l 33 0 l 33 971 m 269 553 l 372 901 l 158 901 l 267 553 m 226 485 l 117 817 l 117 153 m 414 814 l 310 485 l 414 157 m 372 69 l 269 418 l 267 418 l 158 69 "},"Ĳ":{"ha":535,"x_min":0,"x_max":0,"o":"m 114 971 l 114 0 l 31 0 l 31 971 m 254 350 l 254 167 b 338 64 254 90 292 64 b 421 167 383 64 421 89 l 421 971 l 504 971 l 504 168 b 340 -14 504 46 440 -14 b 175 168 239 -14 175 46 l 175 350 "},"ĸ":{"ha":376,"x_min":0,"x_max":0,"o":"m 28 778 l 106 778 l 106 463 l 108 463 l 274 778 l 356 778 l 167 422 l 367 0 l 279 0 l 108 381 l 106 381 l 106 0 l 28 0 "},"Ð":{"ha":394,"x_min":0,"x_max":0,"o":"m 31 475 l -10 475 l -10 550 l 31 550 l 31 971 l 197 971 b 364 776 299 971 364 907 l 364 194 b 197 0 364 64 299 0 l 31 0 m 197 78 b 281 181 243 78 281 103 l 281 790 b 197 893 281 868 243 893 l 114 893 l 114 550 l 213 550 l 213 475 l 114 475 l 114 78 "},"Ľ":{"ha":289,"x_min":0,"x_max":0,"o":"m 114 971 l 114 78 l 281 78 l 281 0 l 31 0 l 31 971 m 171 971 l 246 971 l 194 699 l 150 699 "},"Ų":{"ha":394,"x_min":0,"x_max":0,"o":"m 114 971 l 114 167 b 197 64 114 90 151 64 b 281 167 243 64 281 89 l 281 971 l 364 971 l 364 168 b 249 -8 364 68 319 10 b 208 -56 224 -19 208 -36 b 276 -94 208 -81 233 -94 b 317 -90 290 -94 304 -93 l 317 -165 b 264 -169 299 -168 279 -169 b 144 -86 192 -169 144 -137 b 189 -14 144 -57 161 -32 b 31 168 92 -11 31 49 l 31 971 "},"ð":{"ha":361,"x_min":0,"x_max":0,"o":"m 115 889 l 161 917 b 75 976 138 938 110 957 l 93 1014 b 211 944 140 994 179 971 l 269 979 l 294 938 l 247 910 b 333 603 313 836 333 738 l 333 181 b 181 -14 333 56 279 -14 b 28 181 83 -14 28 56 l 28 592 b 147 764 28 700 78 764 b 254 650 200 764 238 728 l 257 650 b 196 879 253 756 235 825 l 142 847 m 181 58 b 256 164 229 58 256 96 l 256 475 b 172 692 256 621 229 692 b 106 586 131 692 106 653 l 106 164 b 181 58 106 96 132 58 "},"í":{"ha":175,"x_min":0,"x_max":0,"o":"m 53 821 l 97 1044 l 179 1044 l 108 821 m 49 778 l 126 778 l 126 0 l 49 0 "},"ĺ":{"ha":133,"x_min":0,"x_max":0,"o":"m 32 1028 l 76 1251 l 158 1251 l 88 1028 m 28 999 l 106 999 l 106 0 l 28 0 "},"ś":{"ha":343,"x_min":0,"x_max":0,"o":"m 136 821 l 181 1044 l 263 1044 l 192 821 m 99 260 l 99 158 b 174 60 99 81 133 60 b 244 158 214 60 244 81 l 244 210 b 157 358 244 293 233 303 l 135 375 b 28 549 88 408 28 456 l 28 606 b 171 792 28 736 81 792 b 314 606 263 792 314 736 l 314 532 l 240 532 l 240 621 b 171 719 240 699 208 719 b 101 621 133 719 101 699 l 101 579 b 192 426 101 489 125 472 l 215 411 b 322 236 263 379 322 339 l 322 174 b 171 -14 322 43 263 -14 b 21 174 79 -14 21 43 l 21 260 "},"ŝ":{"ha":343,"x_min":0,"x_max":0,"o":"m 76 821 l 126 1044 l 218 1044 l 268 821 l 204 821 l 174 997 l 171 997 l 140 821 m 99 260 l 99 158 b 174 60 99 81 133 60 b 244 158 214 60 244 81 l 244 210 b 157 358 244 293 233 303 l 135 375 b 28 549 88 408 28 456 l 28 606 b 171 792 28 736 81 792 b 314 606 263 792 314 736 l 314 532 l 240 532 l 240 621 b 171 719 240 699 208 719 b 101 621 133 719 101 699 l 101 579 b 192 426 101 489 125 472 l 215 411 b 322 236 263 379 322 339 l 322 174 b 171 -14 322 43 263 -14 b 21 174 79 -14 21 43 l 21 260 "},"ş":{"ha":343,"x_min":0,"x_max":0,"o":"m 99 260 l 99 158 b 174 60 99 81 133 60 b 244 158 214 60 244 81 l 244 210 b 157 358 244 293 233 303 l 135 375 b 28 549 88 408 28 456 l 28 606 b 171 792 28 736 81 792 b 314 606 263 792 314 736 l 314 532 l 240 532 l 240 621 b 171 719 240 699 208 719 b 101 621 133 719 101 699 l 101 579 b 192 426 101 489 125 472 l 215 411 b 322 236 263 379 322 339 l 322 174 b 190 -12 322 53 271 -6 l 186 -35 b 292 -104 250 -36 292 -62 b 178 -178 292 -147 244 -178 b 119 -171 160 -178 138 -175 l 119 -119 b 172 -125 142 -124 160 -125 b 219 -100 201 -125 219 -115 b 140 -67 219 -79 189 -67 l 149 -12 b 21 174 69 -4 21 54 l 21 260 "},"−":{"ha":400,"x_min":0,"x_max":0,"o":"m 367 390 l 33 390 l 33 468 l 367 468 "},"⁴":{"ha":278,"x_min":0,"x_max":0,"o":"m 33 604 l 110 971 l 208 971 l 208 604 l 244 604 l 244 546 l 208 546 l 208 419 l 144 419 l 144 546 l 33 546 m 144 604 l 151 915 l 150 915 l 94 604 "},"”":{"ha":325,"x_min":0,"x_max":0,"o":"m 206 971 l 292 971 l 207 657 l 174 657 m 65 971 l 151 971 l 67 657 l 33 657 "},"̌":{"ha":164,"x_min":0,"x_max":0,"o":"m 56 971 l 131 971 l 79 699 l 35 699 "},"ȷ":{"ha":133,"x_min":0,"x_max":0,"o":"m -74 -144 b -36 -147 -58 -147 -46 -147 b 28 -61 10 -147 28 -124 l 28 778 l 106 778 l 106 -62 b -26 -221 106 -161 57 -221 b -74 -214 -39 -221 -56 -219 "},"ẃ":{"ha":650,"x_min":0,"x_max":0,"o":"m 293 821 l 338 1044 l 419 1044 l 349 821 m 11 778 l 90 778 l 176 58 l 179 58 l 264 778 l 389 778 l 471 58 l 474 58 l 564 778 l 639 778 l 528 0 l 418 0 l 326 697 l 324 697 l 232 0 l 122 0 "},"ẁ":{"ha":650,"x_min":0,"x_max":0,"o":"m 236 1044 l 319 1044 l 363 821 l 307 821 m 11 778 l 90 778 l 176 58 l 179 58 l 264 778 l 389 778 l 471 58 l 474 58 l 564 778 l 639 778 l 528 0 l 418 0 l 326 697 l 324 697 l 232 0 l 122 0 "},"ẅ":{"ha":650,"x_min":0,"x_max":0,"o":"m 236 944 l 311 944 l 311 847 l 236 847 m 343 944 l 418 944 l 418 847 l 343 847 m 11 778 l 90 778 l 176 58 l 179 58 l 264 778 l 389 778 l 471 58 l 474 58 l 564 778 l 639 778 l 528 0 l 418 0 l 326 697 l 324 697 l 232 0 l 122 0 "},"Ẃ":{"ha":647,"x_min":0,"x_max":0,"o":"m 290 1014 l 335 1238 l 417 1238 l 346 1014 m 11 971 l 96 971 l 171 58 l 174 58 l 267 971 l 385 971 l 476 58 l 479 58 l 554 971 l 636 971 l 543 0 l 415 0 l 375 378 l 325 899 l 322 899 l 272 378 l 232 0 l 104 0 "},"Ẁ":{"ha":647,"x_min":0,"x_max":0,"o":"m 233 1238 l 317 1238 l 360 1014 l 304 1014 m 11 971 l 96 971 l 171 58 l 174 58 l 267 971 l 385 971 l 476 58 l 479 58 l 554 971 l 636 971 l 543 0 l 415 0 l 375 378 l 325 899 l 322 899 l 272 378 l 232 0 l 104 0 "},"Ẅ":{"ha":647,"x_min":0,"x_max":0,"o":"m 233 1138 l 308 1138 l 308 1040 l 233 1040 m 340 1138 l 415 1138 l 415 1040 l 340 1040 m 11 971 l 96 971 l 171 58 l 174 58 l 267 971 l 385 971 l 476 58 l 479 58 l 554 971 l 636 971 l 543 0 l 415 0 l 375 378 l 325 899 l 322 899 l 272 378 l 232 0 l 104 0 "},"ǽ":{"ha":585,"x_min":0,"x_max":0,"o":"m 258 821 l 303 1044 l 385 1044 l 314 821 m 260 111 b 144 -14 244 22 204 -14 b 28 151 65 -14 28 49 l 28 244 b 256 490 28 367 67 408 l 256 614 b 181 719 256 682 229 719 b 106 614 132 719 106 682 l 106 511 l 32 511 l 32 599 b 183 792 32 722 86 792 b 294 742 232 792 269 775 l 297 742 b 407 792 322 775 360 792 b 557 599 499 792 557 729 l 557 365 l 333 365 l 333 164 b 408 58 333 86 367 58 b 483 164 450 58 483 86 l 483 301 l 557 301 l 557 181 b 407 -14 557 50 499 -14 b 263 111 333 -14 281 28 m 483 432 l 483 614 b 408 719 483 692 450 719 b 333 614 367 719 333 692 l 333 432 m 256 417 b 106 251 124 356 106 335 l 106 157 b 163 58 106 88 126 58 b 256 306 219 58 256 128 l 256 417 "},"Ǽ":{"ha":590,"x_min":0,"x_max":0,"o":"m 363 1014 l 407 1238 l 489 1238 l 418 1014 m 251 971 l 569 971 l 569 893 l 396 893 l 396 550 l 558 550 l 558 475 l 396 475 l 396 78 l 576 78 l 576 0 l 313 0 l 313 275 l 163 275 l 96 0 l 11 0 m 313 353 l 313 883 l 310 883 l 182 353 "},"μ":{"ha":531,"x_min":0,"x_max":0,"o":"m 497 971 l 497 0 l 33 0 l 33 971 m 269 553 l 372 901 l 158 901 l 267 553 m 226 485 l 117 817 l 117 153 m 414 814 l 310 485 l 414 157 m 372 69 l 269 418 l 267 418 l 158 69 "},"ș":{"ha":504,"x_min":0,"x_max":0,"o":"m 99 260 l 99 158 b 174 60 99 81 133 60 b 244 158 214 60 244 81 l 244 210 b 157 358 244 293 233 303 l 135 375 b 28 549 88 408 28 456 l 28 606 b 171 792 28 736 81 792 b 314 606 263 792 314 736 l 314 532 l 240 532 l 240 621 b 171 719 240 699 208 719 b 101 621 133 719 101 699 l 101 579 b 192 426 101 489 125 472 l 215 411 b 322 236 263 379 322 339 l 322 174 b 171 -14 322 43 263 -14 b 21 174 79 -14 21 43 l 21 260 m 131 -40 l 211 -40 l 158 -207 l 117 -207 "},"Ș":{"ha":375,"x_min":0,"x_max":0,"o":"m 104 336 l 104 167 b 188 64 104 89 142 64 b 271 167 233 64 271 90 l 271 269 b 176 453 271 379 254 394 l 154 469 b 29 685 99 511 29 563 l 29 790 b 188 985 29 921 92 985 b 346 790 283 985 346 921 l 346 649 l 267 649 l 267 804 b 188 907 267 882 231 907 b 108 804 144 907 108 882 l 108 715 b 208 529 108 606 131 585 l 232 513 b 354 300 283 476 354 422 l 354 181 b 188 -14 354 50 289 -14 b 21 181 86 -14 21 50 l 21 336 m 147 -40 l 228 -40 l 175 -207 l 133 -207 "},"ỳ":{"ha":350,"x_min":0,"x_max":0,"o":"m 86 1044 l 169 1044 l 213 821 l 157 821 m 26 -128 b 135 -56 106 -128 135 -114 b 128 11 135 -40 133 -22 l 10 778 l 89 778 l 176 79 l 179 79 l 267 778 l 340 778 l 218 -46 b 43 -200 200 -167 157 -200 l 26 -200 "},"Ỳ":{"ha":411,"x_min":0,"x_max":0,"o":"m 117 1238 l 200 1238 l 243 1014 l 188 1014 m 250 356 l 250 0 l 167 0 l 167 356 l 11 971 l 96 971 l 208 463 l 211 463 l 318 971 l 400 971 "},"Ǿ":{"ha":394,"x_min":0,"x_max":0,"o":"m 163 1014 l 207 1238 l 289 1238 l 218 1014 m 197 -14 b 100 14 160 -14 126 -4 l 88 -42 l 44 -42 l 65 49 b 31 181 43 81 31 125 l 31 790 b 197 985 31 921 96 985 b 294 957 235 985 268 975 l 307 1013 l 350 1013 l 329 922 b 364 790 351 890 364 847 l 364 181 b 197 -14 364 50 299 -14 m 263 876 b 197 907 247 899 224 907 b 114 804 151 907 114 882 l 114 208 m 197 64 b 281 167 243 64 281 89 l 281 763 l 132 94 b 197 64 147 72 171 64 "},"ǿ":{"ha":361,"x_min":0,"x_max":0,"o":"m 146 821 l 190 1044 l 272 1044 l 201 821 m 181 -14 b 94 11 147 -14 118 -6 l 81 -42 l 31 -42 l 54 56 b 28 181 38 86 28 128 l 28 599 b 181 792 28 729 88 792 b 268 767 214 792 243 783 l 281 819 l 331 819 l 307 722 b 333 599 324 692 333 650 l 333 181 b 181 -14 333 50 274 -14 m 238 692 b 181 719 224 711 203 719 b 106 614 139 719 106 692 l 106 204 m 181 58 b 256 164 222 58 256 86 l 256 574 l 124 86 b 181 58 138 67 158 58 "},"Ț":{"ha":375,"x_min":0,"x_max":0,"o":"m 354 893 l 229 893 l 229 0 l 146 0 l 146 893 l 21 893 l 21 971 l 354 971 m 147 -40 l 228 -40 l 175 -207 l 133 -207 "},"ț":{"ha":296,"x_min":0,"x_max":0,"o":"m 89 778 l 89 907 l 167 907 l 167 778 l 282 778 l 282 706 l 167 706 l 167 140 b 236 60 167 86 189 60 b 282 65 249 60 264 61 l 282 -4 b 221 -14 260 -11 239 -14 b 89 139 140 -14 89 46 l 89 706 l 14 706 l 14 778 m 126 -40 l 207 -40 l 154 -207 l 113 -207 "},"ﬂ":{"ha":450,"x_min":0,"x_max":0,"o":"m 14 778 l 89 778 l 89 856 b 228 1014 89 956 140 1014 b 296 1004 249 1014 272 1011 l 296 933 b 242 940 275 939 258 940 b 167 854 189 940 167 915 l 167 778 l 296 778 l 296 706 l 167 706 l 167 0 l 89 0 l 89 706 l 14 706 m 344 1000 l 422 1000 l 422 0 l 344 0 "}}}
